<svg width="130" height="40" viewBox="0 0 130 40" fill="none" xmlns="http://www.w3.org/2000/svg">
<rect x="0.5" y="0.5" width="129" height="39" rx="19.5" fill="#FE018F" stroke="#B08D96"/>
<path d="M51.2979 26L49.6982 21.9131H44.5479L42.9658 26H41.4541L46.5342 13.0977H47.791L52.8447 26H51.2979ZM49.2324 20.5684L47.7383 16.5869C47.5449 16.083 47.3457 15.4648 47.1406 14.7324C47.0117 15.2949 46.8271 15.9131 46.5869 16.5869L45.0752 20.5684H49.2324ZM58.874 26.1758C58.2471 26.1758 57.6729 26.0615 57.1514 25.833C56.6357 25.5986 56.2021 25.2412 55.8506 24.7607H55.7451C55.8154 25.3232 55.8506 25.8564 55.8506 26.3604V30.3242H54.3916V16.3672H55.5781L55.7803 17.6855H55.8506C56.2256 17.1582 56.6621 16.7773 57.1602 16.543C57.6582 16.3086 58.2295 16.1914 58.874 16.1914C60.1514 16.1914 61.1357 16.6279 61.8271 17.501C62.5244 18.374 62.873 19.5986 62.873 21.1748C62.873 22.7568 62.5186 23.9873 61.8096 24.8662C61.1064 25.7393 60.1279 26.1758 58.874 26.1758ZM58.6631 17.4307C57.6787 17.4307 56.9668 17.7031 56.5273 18.248C56.0879 18.793 55.8623 19.6602 55.8506 20.8496V21.1748C55.8506 22.5283 56.0762 23.498 56.5273 24.084C56.9785 24.6641 57.7021 24.9541 58.6982 24.9541C59.5303 24.9541 60.1807 24.6172 60.6494 23.9434C61.124 23.2695 61.3613 22.3408 61.3613 21.1572C61.3613 19.9561 61.124 19.0361 60.6494 18.3975C60.1807 17.7529 59.5186 17.4307 58.6631 17.4307ZM69.9131 26.1758C69.2861 26.1758 68.7119 26.0615 68.1904 25.833C67.6748 25.5986 67.2412 25.2412 66.8896 24.7607H66.7842C66.8545 25.3232 66.8896 25.8564 66.8896 26.3604V30.3242H65.4307V16.3672H66.6172L66.8193 17.6855H66.8896C67.2646 17.1582 67.7012 16.7773 68.1992 16.543C68.6973 16.3086 69.2686 16.1914 69.9131 16.1914C71.1904 16.1914 72.1748 16.6279 72.8662 17.501C73.5635 18.374 73.9121 19.5986 73.9121 21.1748C73.9121 22.7568 73.5576 23.9873 72.8486 24.8662C72.1455 25.7393 71.167 26.1758 69.9131 26.1758ZM69.7021 17.4307C68.7178 17.4307 68.0059 17.7031 67.5664 18.248C67.127 18.793 66.9014 19.6602 66.8896 20.8496V21.1748C66.8896 22.5283 67.1152 23.498 67.5664 24.084C68.0176 24.6641 68.7412 24.9541 69.7373 24.9541C70.5693 24.9541 71.2197 24.6172 71.6885 23.9434C72.1631 23.2695 72.4004 22.3408 72.4004 21.1572C72.4004 19.9561 72.1631 19.0361 71.6885 18.3975C71.2197 17.7529 70.5576 17.4307 69.7021 17.4307ZM77.9287 26H76.4697V12.3242H77.9287V26ZM79.4932 16.3672H81.0576L83.167 21.8604C83.6299 23.1143 83.917 24.0195 84.0283 24.5762H84.0986C84.1748 24.2773 84.333 23.7676 84.5732 23.0469C84.8193 22.3203 85.6162 20.0938 86.9639 16.3672H88.5283L84.3887 27.3359C83.9785 28.4199 83.498 29.1875 82.9473 29.6387C82.4023 30.0957 81.7314 30.3242 80.9346 30.3242C80.4893 30.3242 80.0498 30.2744 79.6162 30.1748V29.0059C79.9385 29.0762 80.2988 29.1113 80.6973 29.1113C81.6992 29.1113 82.4141 28.5488 82.8418 27.4238L83.3779 26.0527L79.4932 16.3672Z" fill="white"/>
</svg>
