<svg width="163" height="25" viewBox="0 0 163 25" fill="none" xmlns="http://www.w3.org/2000/svg">
<circle cx="7.5" cy="12.5" r="7" fill="white" fill-opacity="0.2" stroke="#CECECE"/>
<path d="M31.1348 19H29.0342V7.95215H25.2549V6.15039H34.9141V7.95215H31.1348V19ZM43.5273 19L43.2373 17.7256H43.1318C42.8447 18.1768 42.4346 18.5312 41.9014 18.7891C41.374 19.0469 40.7705 19.1758 40.0908 19.1758C38.9131 19.1758 38.0342 18.8828 37.4541 18.2969C36.874 17.7109 36.584 16.8232 36.584 15.6338V9.2793H38.667V15.2734C38.667 16.0176 38.8193 16.5771 39.124 16.9521C39.4287 17.3213 39.9062 17.5059 40.5566 17.5059C41.4238 17.5059 42.0596 17.248 42.4639 16.7324C42.874 16.2109 43.0791 15.3408 43.0791 14.1221V9.2793H45.1533V19H43.5273ZM53.0283 9.10352C53.4443 9.10352 53.7871 9.13281 54.0566 9.19141L53.8545 11.1162C53.5615 11.0459 53.2568 11.0107 52.9404 11.0107C52.1143 11.0107 51.4434 11.2803 50.9277 11.8193C50.418 12.3584 50.1631 13.0586 50.1631 13.9199V19H48.0977V9.2793H49.7148L49.9873 10.9932H50.0928C50.415 10.4131 50.834 9.95312 51.3496 9.61328C51.8711 9.27344 52.4307 9.10352 53.0283 9.10352ZM64.4189 19H62.3447V13.0234C62.3447 12.2734 62.1924 11.7139 61.8877 11.3447C61.5889 10.9756 61.1113 10.791 60.4551 10.791C59.582 10.791 58.9434 11.0488 58.5391 11.5645C58.1348 12.0801 57.9326 12.9443 57.9326 14.1572V19H55.8672V9.2793H57.4844L57.7744 10.5537H57.8799C58.1729 10.0908 58.5889 9.7334 59.1279 9.48145C59.667 9.22949 60.2646 9.10352 60.9209 9.10352C63.2529 9.10352 64.4189 10.29 64.4189 12.6631V19ZM80.5908 14.1221C80.5908 15.71 80.1836 16.9492 79.3691 17.8398C78.5547 18.7305 77.4209 19.1758 75.9678 19.1758C75.0596 19.1758 74.2568 18.9707 73.5596 18.5605C72.8623 18.1504 72.3262 17.5615 71.9512 16.7939C71.5762 16.0264 71.3887 15.1357 71.3887 14.1221C71.3887 12.5459 71.793 11.3154 72.6016 10.4307C73.4102 9.5459 74.5498 9.10352 76.0205 9.10352C77.4268 9.10352 78.54 9.55762 79.3604 10.4658C80.1807 11.3682 80.5908 12.5869 80.5908 14.1221ZM73.5156 14.1221C73.5156 16.3662 74.3447 17.4883 76.0029 17.4883C77.6436 17.4883 78.4639 16.3662 78.4639 14.1221C78.4639 11.9014 77.6377 10.791 75.9854 10.791C75.1182 10.791 74.4883 11.0781 74.0957 11.6523C73.709 12.2266 73.5156 13.0498 73.5156 14.1221ZM91.5244 19H89.4502V13.0234C89.4502 12.2734 89.2979 11.7139 88.9932 11.3447C88.6943 10.9756 88.2168 10.791 87.5605 10.791C86.6875 10.791 86.0488 11.0488 85.6445 11.5645C85.2402 12.0801 85.0381 12.9443 85.0381 14.1572V19H82.9727V9.2793H84.5898L84.8799 10.5537H84.9854C85.2783 10.0908 85.6943 9.7334 86.2334 9.48145C86.7725 9.22949 87.3701 9.10352 88.0264 9.10352C90.3584 9.10352 91.5244 10.29 91.5244 12.6631V19ZM102.994 19.1758C101.523 19.1758 100.404 18.748 99.6367 17.8926C98.875 17.0312 98.4941 15.7979 98.4941 14.1924C98.4941 12.5576 98.8926 11.3008 99.6895 10.4219C100.492 9.54297 101.649 9.10352 103.161 9.10352C104.187 9.10352 105.109 9.29395 105.93 9.6748L105.306 11.3359C104.433 10.9961 103.712 10.8262 103.144 10.8262C101.462 10.8262 100.621 11.9424 100.621 14.1748C100.621 15.2646 100.829 16.085 101.245 16.6357C101.667 17.1807 102.282 17.4531 103.091 17.4531C104.011 17.4531 104.881 17.2246 105.701 16.7676V18.5693C105.332 18.7861 104.937 18.9414 104.515 19.0352C104.099 19.1289 103.592 19.1758 102.994 19.1758ZM114.068 19L113.655 17.6465H113.585C113.116 18.2383 112.645 18.6426 112.17 18.8594C111.695 19.0703 111.086 19.1758 110.342 19.1758C109.387 19.1758 108.64 18.918 108.101 18.4023C107.567 17.8867 107.301 17.1572 107.301 16.2139C107.301 15.2119 107.673 14.4561 108.417 13.9463C109.161 13.4365 110.295 13.1582 111.818 13.1113L113.497 13.0586V12.54C113.497 11.9189 113.351 11.4561 113.058 11.1514C112.771 10.8408 112.322 10.6855 111.713 10.6855C111.215 10.6855 110.737 10.7588 110.28 10.9053C109.823 11.0518 109.384 11.2246 108.962 11.4238L108.294 9.94727C108.821 9.67188 109.398 9.46387 110.025 9.32324C110.652 9.17676 111.244 9.10352 111.801 9.10352C113.037 9.10352 113.969 9.37305 114.596 9.91211C115.229 10.4512 115.545 11.2979 115.545 12.4521V19H114.068ZM110.992 17.5938C111.742 17.5938 112.343 17.3857 112.794 16.9697C113.251 16.5479 113.479 15.959 113.479 15.2031V14.3594L112.231 14.4121C111.259 14.4473 110.55 14.6113 110.104 14.9043C109.665 15.1914 109.445 15.6338 109.445 16.2314C109.445 16.665 109.574 17.002 109.832 17.2422C110.09 17.4766 110.477 17.5938 110.992 17.5938ZM126.619 19H124.545V13.0059C124.545 12.2617 124.404 11.708 124.123 11.3447C123.842 10.9756 123.402 10.791 122.805 10.791C122.008 10.791 121.422 11.0518 121.047 11.5732C120.678 12.0889 120.493 12.9502 120.493 14.1572V19H118.428V9.2793H120.045L120.335 10.5537H120.44C120.71 10.0908 121.1 9.7334 121.609 9.48145C122.125 9.22949 122.69 9.10352 123.306 9.10352C124.8 9.10352 125.79 9.61328 126.276 10.6328H126.417C126.704 10.1523 127.108 9.77734 127.63 9.50781C128.151 9.23828 128.749 9.10352 129.423 9.10352C130.583 9.10352 131.427 9.39648 131.954 9.98242C132.487 10.5684 132.754 11.4619 132.754 12.6631V19H130.688V13.0059C130.688 12.2617 130.545 11.708 130.258 11.3447C129.977 10.9756 129.537 10.791 128.939 10.791C128.137 10.791 127.548 11.043 127.173 11.5469C126.804 12.0449 126.619 12.8125 126.619 13.8496V19ZM139.882 19.1758C138.37 19.1758 137.187 18.7363 136.331 17.8574C135.481 16.9727 135.057 15.7568 135.057 14.21C135.057 12.6221 135.452 11.374 136.243 10.4658C137.034 9.55762 138.121 9.10352 139.504 9.10352C140.787 9.10352 141.801 9.49316 142.545 10.2725C143.289 11.0518 143.661 12.124 143.661 13.4893V14.6055H137.184C137.213 15.5488 137.468 16.2754 137.948 16.7852C138.429 17.2891 139.105 17.541 139.979 17.541C140.553 17.541 141.086 17.4883 141.578 17.3828C142.076 17.2715 142.609 17.0898 143.178 16.8379V18.5166C142.674 18.7568 142.164 18.9268 141.648 19.0264C141.133 19.126 140.544 19.1758 139.882 19.1758ZM139.504 10.668C138.848 10.668 138.32 10.876 137.922 11.292C137.529 11.708 137.295 12.3145 137.219 13.1113H141.631C141.619 12.3086 141.426 11.7021 141.051 11.292C140.676 10.876 140.16 10.668 139.504 10.668ZM150.938 9.10352C151.354 9.10352 151.697 9.13281 151.967 9.19141L151.765 11.1162C151.472 11.0459 151.167 11.0107 150.851 11.0107C150.024 11.0107 149.354 11.2803 148.838 11.8193C148.328 12.3584 148.073 13.0586 148.073 13.9199V19H146.008V9.2793H147.625L147.897 10.9932H148.003C148.325 10.4131 148.744 9.95312 149.26 9.61328C149.781 9.27344 150.341 9.10352 150.938 9.10352ZM159.859 19L159.446 17.6465H159.376C158.907 18.2383 158.436 18.6426 157.961 18.8594C157.486 19.0703 156.877 19.1758 156.133 19.1758C155.178 19.1758 154.431 18.918 153.892 18.4023C153.358 17.8867 153.092 17.1572 153.092 16.2139C153.092 15.2119 153.464 14.4561 154.208 13.9463C154.952 13.4365 156.086 13.1582 157.609 13.1113L159.288 13.0586V12.54C159.288 11.9189 159.142 11.4561 158.849 11.1514C158.562 10.8408 158.113 10.6855 157.504 10.6855C157.006 10.6855 156.528 10.7588 156.071 10.9053C155.614 11.0518 155.175 11.2246 154.753 11.4238L154.085 9.94727C154.612 9.67188 155.189 9.46387 155.816 9.32324C156.443 9.17676 157.035 9.10352 157.592 9.10352C158.828 9.10352 159.76 9.37305 160.387 9.91211C161.02 10.4512 161.336 11.2979 161.336 12.4521V19H159.859ZM156.783 17.5938C157.533 17.5938 158.134 17.3857 158.585 16.9697C159.042 16.5479 159.271 15.959 159.271 15.2031V14.3594L158.022 14.4121C157.05 14.4473 156.341 14.6113 155.896 14.9043C155.456 15.1914 155.236 15.6338 155.236 16.2314C155.236 16.665 155.365 17.002 155.623 17.2422C155.881 17.4766 156.268 17.5938 156.783 17.5938Z" fill="white"/>
</svg>
