<svg width="130" height="40" viewBox="0 0 130 40" fill="none" xmlns="http://www.w3.org/2000/svg">
<rect x="0.5" y="0.5" width="129" height="39" rx="19.5" stroke="#CDCDCD"/>
<path d="M44.4336 14.3018C43.0215 14.3018 41.9053 14.7734 41.085 15.7168C40.2705 16.6543 39.8633 17.9404 39.8633 19.5752C39.8633 21.2568 40.2559 22.5576 41.041 23.4775C41.832 24.3916 42.957 24.8486 44.416 24.8486C45.3125 24.8486 46.335 24.6875 47.4834 24.3652V25.6748C46.5928 26.0088 45.4941 26.1758 44.1875 26.1758C42.2949 26.1758 40.833 25.6016 39.8018 24.4531C38.7764 23.3047 38.2637 21.6729 38.2637 19.5576C38.2637 18.2334 38.5098 17.0732 39.002 16.0771C39.5 15.0811 40.2148 14.3135 41.1465 13.7744C42.084 13.2354 43.1855 12.9658 44.4512 12.9658C45.7988 12.9658 46.9766 13.2119 47.9844 13.7041L47.3516 14.9873C46.3789 14.5303 45.4062 14.3018 44.4336 14.3018ZM55.9912 26L55.7012 24.6289H55.6309C55.1504 25.2324 54.6699 25.6426 54.1895 25.8594C53.7148 26.0703 53.1201 26.1758 52.4053 26.1758C51.4502 26.1758 50.7002 25.9297 50.1553 25.4375C49.6162 24.9453 49.3467 24.2451 49.3467 23.3369C49.3467 21.3916 50.9023 20.3721 54.0137 20.2783L55.6484 20.2256V19.6279C55.6484 18.8721 55.4844 18.3154 55.1562 17.958C54.834 17.5947 54.3154 17.4131 53.6006 17.4131C52.7979 17.4131 51.8896 17.6592 50.876 18.1514L50.4277 17.0352C50.9023 16.7773 51.4209 16.5752 51.9834 16.4287C52.5518 16.2822 53.1201 16.209 53.6885 16.209C54.8369 16.209 55.6865 16.4639 56.2373 16.9736C56.7939 17.4834 57.0723 18.3008 57.0723 19.4258V26H55.9912ZM52.6953 24.9717C53.6035 24.9717 54.3154 24.7227 54.8311 24.2246C55.3525 23.7266 55.6133 23.0293 55.6133 22.1328V21.2627L54.1543 21.3242C52.9941 21.3652 52.1562 21.5469 51.6406 21.8691C51.1309 22.1855 50.876 22.6807 50.876 23.3545C50.876 23.8818 51.0342 24.2832 51.3506 24.5586C51.6729 24.834 52.1211 24.9717 52.6953 24.9717ZM66.6787 26V19.7686C66.6787 18.9834 66.5 18.3975 66.1426 18.0107C65.7852 17.624 65.2256 17.4307 64.4639 17.4307C63.4561 17.4307 62.7178 17.7031 62.249 18.248C61.7803 18.793 61.5459 19.6924 61.5459 20.9463V26H60.0869V16.3672H61.2734L61.5107 17.6855H61.5811C61.8799 17.2109 62.2988 16.8447 62.8379 16.5869C63.377 16.3232 63.9775 16.1914 64.6396 16.1914C65.7998 16.1914 66.6729 16.4727 67.2588 17.0352C67.8447 17.5918 68.1377 18.4854 68.1377 19.7158V26H66.6787ZM74.9932 26.1758C73.5986 26.1758 72.5176 25.748 71.75 24.8926C70.9883 24.0312 70.6074 22.8154 70.6074 21.2451C70.6074 19.6338 70.9941 18.3887 71.7676 17.5098C72.5469 16.6309 73.6543 16.1914 75.0898 16.1914C75.5527 16.1914 76.0156 16.2412 76.4785 16.3408C76.9414 16.4404 77.3047 16.5576 77.5684 16.6924L77.1201 17.9316C76.7979 17.8027 76.4463 17.6973 76.0654 17.6152C75.6846 17.5273 75.3477 17.4834 75.0547 17.4834C73.0977 17.4834 72.1191 18.7314 72.1191 21.2275C72.1191 22.4111 72.3564 23.3193 72.8311 23.9521C73.3115 24.585 74.0205 24.9014 74.958 24.9014C75.7607 24.9014 76.584 24.7285 77.4277 24.3828V25.6748C76.7832 26.0088 75.9717 26.1758 74.9932 26.1758ZM83.791 26.1758C82.3672 26.1758 81.2422 25.7422 80.416 24.875C79.5957 24.0078 79.1855 22.8037 79.1855 21.2627C79.1855 19.71 79.5664 18.4766 80.3281 17.5625C81.0957 16.6484 82.124 16.1914 83.4131 16.1914C84.6201 16.1914 85.5752 16.5898 86.2783 17.3867C86.9814 18.1777 87.333 19.2236 87.333 20.5244V21.4473H80.6973C80.7266 22.5781 81.0107 23.4365 81.5498 24.0225C82.0947 24.6084 82.8594 24.9014 83.8438 24.9014C84.8809 24.9014 85.9062 24.6846 86.9199 24.251V25.5518C86.4043 25.7744 85.915 25.9326 85.4521 26.0264C84.9951 26.126 84.4414 26.1758 83.791 26.1758ZM83.3955 17.4131C82.6221 17.4131 82.0039 17.665 81.541 18.1689C81.084 18.6729 80.8145 19.3701 80.7324 20.2607H85.7686C85.7686 19.3408 85.5635 18.6377 85.1533 18.1514C84.7432 17.6592 84.1572 17.4131 83.3955 17.4131ZM91.2881 26H89.8291V12.3242H91.2881V26Z" fill="#1F1F1F"/>
</svg>
