<svg width="100" height="40" viewBox="0 0 100 40" fill="none" xmlns="http://www.w3.org/2000/svg">
<rect x="0.5" y="0.5" width="99" height="39" rx="19.5" fill="#FE018F" stroke="#DE007D"/>
<path d="M35.2021 23.4316C35.2021 24.5918 34.7832 25.5059 33.9453 26.1738C33.1133 26.8418 31.9531 27.1758 30.4648 27.1758C29.0938 27.1758 27.8809 26.918 26.8262 26.4023V23.8711C27.6934 24.2578 28.4258 24.5303 29.0234 24.6885C29.627 24.8467 30.1777 24.9258 30.6758 24.9258C31.2734 24.9258 31.7305 24.8115 32.0469 24.583C32.3691 24.3545 32.5303 24.0146 32.5303 23.5635C32.5303 23.3115 32.46 23.0889 32.3193 22.8955C32.1787 22.6963 31.9707 22.5059 31.6953 22.3242C31.4258 22.1426 30.8721 21.8525 30.0342 21.4541C29.249 21.085 28.6602 20.7305 28.2676 20.3906C27.875 20.0508 27.5615 19.6553 27.3271 19.2041C27.0928 18.7529 26.9756 18.2256 26.9756 17.6221C26.9756 16.4854 27.3594 15.5918 28.127 14.9414C28.9004 14.291 29.9668 13.9658 31.3262 13.9658C31.9941 13.9658 32.6299 14.0449 33.2334 14.2031C33.8428 14.3613 34.4785 14.584 35.1406 14.8711L34.2617 16.9893C33.5762 16.708 33.0078 16.5117 32.5566 16.4004C32.1113 16.2891 31.6719 16.2334 31.2383 16.2334C30.7227 16.2334 30.3271 16.3535 30.0518 16.5938C29.7764 16.834 29.6387 17.1475 29.6387 17.5342C29.6387 17.7744 29.6943 17.9854 29.8057 18.167C29.917 18.3428 30.0928 18.5156 30.333 18.6855C30.5791 18.8496 31.1562 19.1484 32.0645 19.582C33.2656 20.1562 34.0889 20.7334 34.5342 21.3135C34.9795 21.8877 35.2021 22.5938 35.2021 23.4316ZM44.9316 27H37.5312V14.1504H44.9316V16.3828H40.2559V19.2041H44.6064V21.4365H40.2559V24.75H44.9316V27ZM59.0205 27H55.5576L49.9678 17.2793H49.8887C50 18.9961 50.0557 20.2207 50.0557 20.9531V27H47.6211V14.1504H51.0576L56.6387 23.7744H56.7002C56.6123 22.1045 56.5684 20.9238 56.5684 20.2324V14.1504H59.0205V27ZM72.9248 20.4521C72.9248 22.5674 72.3213 24.1875 71.1143 25.3125C69.9131 26.4375 68.1758 27 65.9023 27H62.2637V14.1504H66.2979C68.3955 14.1504 70.0244 14.7041 71.1846 15.8115C72.3447 16.9189 72.9248 18.4658 72.9248 20.4521ZM70.0947 20.5225C70.0947 17.7627 68.876 16.3828 66.4385 16.3828H64.9883V24.75H66.1572C68.7822 24.75 70.0947 23.3408 70.0947 20.5225Z" fill="white"/>
</svg>
