<svg width="94" height="57" xmlns="http://www.w3.org/2000/svg" fill="none">

 <g>
  <title>Layer 1</title>
  <path id="svg_1" fill="white" d="m47.5,0c-6.9084,0 -12.5,5.59063 -12.5,12.5c0,2.1925 0.5718,4.3339 1.6577,6.2225l-1.6106,5.0015c-0.1123,0.3486 -0.02,0.7309 0.239,0.9899c0.2565,0.2565 0.6378,0.3523 0.9899,0.239l5.0015,-1.6106c1.8886,1.0859 4.03,1.6577 6.2225,1.6577c6.9084,0 12.5,-5.5906 12.5,-12.5c0,-6.90842 -5.5906,-12.5 -12.5,-12.5zm0,23.0469c-1.9804,0 -3.9108,-0.5526 -5.5826,-1.598c-0.2405,-0.1503 -0.5392,-0.1909 -0.8171,-0.1015l-3.6104,1.1627l1.1627,-3.6104c0.0881,-0.2739 0.0509,-0.5729 -0.1017,-0.8171c-1.0452,-1.6718 -1.5978,-3.6022 -1.5978,-5.5826c0,-5.81551 4.7314,-10.54688 10.5469,-10.54688c5.8155,0 10.5469,4.73137 10.5469,10.54688c0,5.8155 -4.7314,10.5469 -10.5469,10.5469zm1.2207,-10.5469c0,0.6741 -0.5465,1.2207 -1.2207,1.2207c-0.6742,0 -1.2207,-0.5466 -1.2207,-1.2207c0,-0.6742 0.5465,-1.2207 1.2207,-1.2207c0.6742,0 1.2207,0.5465 1.2207,1.2207zm4.8828,0c0,0.6741 -0.5464,1.2207 -1.2207,1.2207c-0.6742,0 -1.2207,-0.5466 -1.2207,-1.2207c0,-0.6742 0.5465,-1.2207 1.2207,-1.2207c0.6743,0 1.2207,0.5465 1.2207,1.2207zm-9.7656,0c0,0.6741 -0.5465,1.2207 -1.2207,1.2207c-0.6741,0 -1.2207,-0.5466 -1.2207,-1.2207c0,-0.6742 0.5466,-1.2207 1.2207,-1.2207c0.6742,0 1.2207,0.5465 1.2207,1.2207z"/>
  <text xml:space="preserve" text-anchor="start" font-family="'Open Sans'" font-size="16" stroke-width="0" id="svg_5" y="51.50697" x="29.23778" stroke="null" fill="white">Chat</text>
 </g>
</svg>