<svg width="130" height="40" viewBox="0 0 130 40" fill="none" xmlns="http://www.w3.org/2000/svg">
<rect x="0.5" y="0.5" width="129" height="39" rx="19.5" fill="#FE018F" stroke="#B08D96"/>
<path d="M38.7461 14.3018C37.334 14.3018 36.2178 14.7734 35.3975 15.7168C34.583 16.6543 34.1758 17.9404 34.1758 19.5752C34.1758 21.2568 34.5684 22.5576 35.3535 23.4775C36.1445 24.3916 37.2695 24.8486 38.7285 24.8486C39.625 24.8486 40.6475 24.6875 41.7959 24.3652V25.6748C40.9053 26.0088 39.8066 26.1758 38.5 26.1758C36.6074 26.1758 35.1455 25.6016 34.1143 24.4531C33.0889 23.3047 32.5762 21.6729 32.5762 19.5576C32.5762 18.2334 32.8223 17.0732 33.3145 16.0771C33.8125 15.0811 34.5273 14.3135 35.459 13.7744C36.3965 13.2354 37.498 12.9658 38.7637 12.9658C40.1113 12.9658 41.2891 13.2119 42.2969 13.7041L41.6641 14.9873C40.6914 14.5303 39.7188 14.3018 38.7461 14.3018ZM52.6943 21.1748C52.6943 22.7451 52.2988 23.9727 51.5078 24.8574C50.7168 25.7363 49.624 26.1758 48.2295 26.1758C47.3682 26.1758 46.6035 25.9736 45.9355 25.5693C45.2676 25.165 44.752 24.585 44.3887 23.8291C44.0254 23.0732 43.8438 22.1885 43.8438 21.1748C43.8438 19.6045 44.2363 18.3828 45.0215 17.5098C45.8066 16.6309 46.8965 16.1914 48.291 16.1914C49.6387 16.1914 50.708 16.6396 51.499 17.5361C52.2959 18.4326 52.6943 19.6455 52.6943 21.1748ZM45.3555 21.1748C45.3555 22.4053 45.6016 23.3428 46.0938 23.9873C46.5859 24.6318 47.3096 24.9541 48.2646 24.9541C49.2197 24.9541 49.9434 24.6348 50.4355 23.9961C50.9336 23.3516 51.1826 22.4111 51.1826 21.1748C51.1826 19.9502 50.9336 19.0215 50.4355 18.3887C49.9434 17.75 49.2139 17.4307 48.2471 17.4307C47.292 17.4307 46.5713 17.7441 46.085 18.3711C45.5986 18.998 45.3555 19.9326 45.3555 21.1748ZM61.8525 26V19.7686C61.8525 18.9834 61.6738 18.3975 61.3164 18.0107C60.959 17.624 60.3994 17.4307 59.6377 17.4307C58.6299 17.4307 57.8916 17.7031 57.4229 18.248C56.9541 18.793 56.7197 19.6924 56.7197 20.9463V26H55.2607V16.3672H56.4473L56.6846 17.6855H56.7549C57.0537 17.2109 57.4727 16.8447 58.0117 16.5869C58.5508 16.3232 59.1514 16.1914 59.8135 16.1914C60.9736 16.1914 61.8467 16.4727 62.4326 17.0352C63.0186 17.5918 63.3115 18.4854 63.3115 19.7158V26H61.8525ZM70.6592 17.501H68.207V26H66.748V17.501H65.0254V16.8418L66.748 16.3145V15.7783C66.748 13.4111 67.7822 12.2275 69.8506 12.2275C70.3604 12.2275 70.958 12.3301 71.6436 12.5352L71.2656 13.7041C70.7031 13.5225 70.2227 13.4316 69.8242 13.4316C69.2734 13.4316 68.8662 13.6162 68.6025 13.9854C68.3389 14.3486 68.207 14.9346 68.207 15.7432V16.3672H70.6592V17.501ZM73.876 26H72.417V16.3672H73.876V26ZM72.2939 13.7568C72.2939 13.4229 72.376 13.1797 72.54 13.0273C72.7041 12.8691 72.9092 12.79 73.1553 12.79C73.3896 12.79 73.5918 12.8691 73.7617 13.0273C73.9316 13.1855 74.0166 13.4287 74.0166 13.7568C74.0166 14.085 73.9316 14.3311 73.7617 14.4951C73.5918 14.6533 73.3896 14.7324 73.1553 14.7324C72.9092 14.7324 72.7041 14.6533 72.54 14.4951C72.376 14.3311 72.2939 14.085 72.2939 13.7568ZM81.3643 16.1914C81.792 16.1914 82.1758 16.2266 82.5156 16.2969L82.3135 17.6504C81.915 17.5625 81.5635 17.5186 81.2588 17.5186C80.4795 17.5186 79.8115 17.835 79.2549 18.4678C78.7041 19.1006 78.4287 19.8887 78.4287 20.832V26H76.9697V16.3672H78.1738L78.3408 18.1514H78.4111C78.7686 17.5244 79.1992 17.041 79.7031 16.7012C80.207 16.3613 80.7607 16.1914 81.3643 16.1914ZM96.5957 26V19.7334C96.5957 18.9658 96.4316 18.3916 96.1035 18.0107C95.7754 17.624 95.2656 17.4307 94.5742 17.4307C93.666 17.4307 92.9951 17.6914 92.5615 18.2129C92.1279 18.7344 91.9111 19.5371 91.9111 20.6211V26H90.4521V19.7334C90.4521 18.9658 90.2881 18.3916 89.96 18.0107C89.6318 17.624 89.1191 17.4307 88.4219 17.4307C87.5078 17.4307 86.8369 17.7061 86.4092 18.2568C85.9873 18.8018 85.7764 19.6982 85.7764 20.9463V26H84.3174V16.3672H85.5039L85.7412 17.6855H85.8115C86.0869 17.2168 86.4736 16.8506 86.9717 16.5869C87.4756 16.3232 88.0381 16.1914 88.6592 16.1914C90.165 16.1914 91.1494 16.7363 91.6123 17.8262H91.6826C91.9697 17.3223 92.3857 16.9238 92.9307 16.6309C93.4756 16.3379 94.0967 16.1914 94.7939 16.1914C95.8838 16.1914 96.6982 16.4727 97.2373 17.0352C97.7822 17.5918 98.0547 18.4854 98.0547 19.7158V26H96.5957Z" fill="white"/>
</svg>
