<svg width="57" height="57" viewBox="0 0 57 57" fill="none" xmlns="http://www.w3.org/2000/svg">
<path d="M10.7031 46.1797C10.7031 48.0651 10.1901 49.5078 9.16406 50.5078C8.14323 51.5026 6.67188 52 4.75 52H1.58594V40.5781H5.08594C6.86198 40.5781 8.24219 41.0703 9.22656 42.0547C10.2109 43.0391 10.7031 44.4141 10.7031 46.1797ZM9.29688 46.2266C9.29688 44.737 8.92188 43.6146 8.17188 42.8594C7.42708 42.1042 6.31771 41.7266 4.84375 41.7266H2.91406V50.8516H4.53125C6.11458 50.8516 7.30469 50.4635 8.10156 49.6875C8.89844 48.9062 9.29688 47.7526 9.29688 46.2266ZM16.6797 52.1562C15.4141 52.1562 14.4141 51.7708 13.6797 51C12.9505 50.2292 12.5859 49.1589 12.5859 47.7891C12.5859 46.4089 12.9245 45.3125 13.6016 44.5C14.2839 43.6875 15.1979 43.2812 16.3438 43.2812C17.4167 43.2812 18.2656 43.6354 18.8906 44.3438C19.5156 45.0469 19.8281 45.9766 19.8281 47.1328V47.9531H13.9297C13.9557 48.9583 14.2083 49.7214 14.6875 50.2422C15.1719 50.763 15.8516 51.0234 16.7266 51.0234C17.6484 51.0234 18.5599 50.8307 19.4609 50.4453V51.6016C19.0026 51.7995 18.5677 51.9401 18.1562 52.0234C17.75 52.112 17.2578 52.1562 16.6797 52.1562ZM16.3281 44.3672C15.6406 44.3672 15.0911 44.5911 14.6797 45.0391C14.2734 45.487 14.0339 46.1068 13.9609 46.8984H18.4375C18.4375 46.0807 18.2552 45.4557 17.8906 45.0234C17.526 44.5859 17.0052 44.3672 16.3281 44.3672ZM23.9219 52L20.6719 43.4375H22.0625L23.9062 48.5156C24.3229 49.7031 24.5677 50.474 24.6406 50.8281H24.7031C24.7604 50.5521 24.9401 49.9818 25.2422 49.1172C25.5495 48.2474 26.2344 46.3542 27.2969 43.4375H28.6875L25.4375 52H23.9219ZM31.3594 52H30.0625V43.4375H31.3594V52ZM29.9531 41.1172C29.9531 40.8203 30.026 40.6042 30.1719 40.4688C30.3177 40.3281 30.5 40.2578 30.7188 40.2578C30.9271 40.2578 31.1068 40.3281 31.2578 40.4688C31.4089 40.6094 31.4844 40.8255 31.4844 41.1172C31.4844 41.4089 31.4089 41.6276 31.2578 41.7734C31.1068 41.9141 30.9271 41.9844 30.7188 41.9844C30.5 41.9844 30.3177 41.9141 30.1719 41.7734C30.026 41.6276 29.9531 41.4089 29.9531 41.1172ZM37.5312 52.1562C36.2917 52.1562 35.3307 51.776 34.6484 51.0156C33.9714 50.25 33.6328 49.1693 33.6328 47.7734C33.6328 46.3411 33.9766 45.2344 34.6641 44.4531C35.3568 43.6719 36.3411 43.2812 37.6172 43.2812C38.0286 43.2812 38.4401 43.3255 38.8516 43.4141C39.263 43.5026 39.5859 43.6068 39.8203 43.7266L39.4219 44.8281C39.1354 44.7135 38.8229 44.6198 38.4844 44.5469C38.1458 44.4688 37.8464 44.4297 37.5859 44.4297C35.8464 44.4297 34.9766 45.5391 34.9766 47.7578C34.9766 48.8099 35.1875 49.6172 35.6094 50.1797C36.0365 50.7422 36.6667 51.0234 37.5 51.0234C38.2135 51.0234 38.9453 50.8698 39.6953 50.5625V51.7109C39.1224 52.0078 38.401 52.1562 37.5312 52.1562ZM45.3516 52.1562C44.0859 52.1562 43.0859 51.7708 42.3516 51C41.6224 50.2292 41.2578 49.1589 41.2578 47.7891C41.2578 46.4089 41.5964 45.3125 42.2734 44.5C42.9557 43.6875 43.8698 43.2812 45.0156 43.2812C46.0885 43.2812 46.9375 43.6354 47.5625 44.3438C48.1875 45.0469 48.5 45.9766 48.5 47.1328V47.9531H42.6016C42.6276 48.9583 42.8802 49.7214 43.3594 50.2422C43.8438 50.763 44.5234 51.0234 45.3984 51.0234C46.3203 51.0234 47.2318 50.8307 48.1328 50.4453V51.6016C47.6745 51.7995 47.2396 51.9401 46.8281 52.0234C46.4219 52.112 45.9297 52.1562 45.3516 52.1562ZM45 44.3672C44.3125 44.3672 43.763 44.5911 43.3516 45.0391C42.9453 45.487 42.7057 46.1068 42.6328 46.8984H47.1094C47.1094 46.0807 46.9271 45.4557 46.5625 45.0234C46.1979 44.5859 45.6771 44.3672 45 44.3672ZM56.2422 49.6641C56.2422 50.4609 55.9453 51.0755 55.3516 51.5078C54.7578 51.9401 53.9245 52.1562 52.8516 52.1562C51.7161 52.1562 50.8307 51.9766 50.1953 51.6172V50.4141C50.6068 50.6224 51.0469 50.7865 51.5156 50.9062C51.9896 51.026 52.4453 51.0859 52.8828 51.0859C53.5599 51.0859 54.0807 50.9792 54.4453 50.7656C54.8099 50.5469 54.9922 50.2161 54.9922 49.7734C54.9922 49.4401 54.8464 49.1562 54.5547 48.9219C54.2682 48.6823 53.7057 48.401 52.8672 48.0781C52.0703 47.7812 51.5026 47.5234 51.1641 47.3047C50.8307 47.0807 50.5807 46.8281 50.4141 46.5469C50.2526 46.2656 50.1719 45.9297 50.1719 45.5391C50.1719 44.8411 50.4557 44.2917 51.0234 43.8906C51.5911 43.4844 52.3698 43.2812 53.3594 43.2812C54.2812 43.2812 55.1823 43.4688 56.0625 43.8438L55.6016 44.8984C54.7422 44.5443 53.9635 44.3672 53.2656 44.3672C52.651 44.3672 52.1875 44.4635 51.875 44.6562C51.5625 44.849 51.4062 45.1146 51.4062 45.4531C51.4062 45.6823 51.4635 45.8776 51.5781 46.0391C51.6979 46.2005 51.888 46.3542 52.1484 46.5C52.4089 46.6458 52.9089 46.8568 53.6484 47.1328C54.6641 47.5026 55.349 47.875 55.7031 48.25C56.0625 48.625 56.2422 49.0964 56.2422 49.6641Z" fill="white"/>
<path d="M15.8044 22.2826H14.174C14.0298 22.2826 13.8916 22.3399 13.7897 22.4418C13.6878 22.5437 13.6305 22.6819 13.6305 22.8261C13.6305 22.9702 13.6878 23.1084 13.7897 23.2104C13.8916 23.3123 14.0298 23.3695 14.174 23.3695H15.8044C15.9485 23.3695 16.0868 23.3123 16.1887 23.2104C16.2906 23.1084 16.3479 22.9702 16.3479 22.8261C16.3479 22.6819 16.2906 22.5437 16.1887 22.4418C16.0868 22.3399 15.9485 22.2826 15.8044 22.2826Z" fill="white"/>
<path d="M17.9783 22.2826H17.4348C17.2907 22.2826 17.1525 22.3399 17.0505 22.4418C16.9486 22.5437 16.8914 22.6819 16.8914 22.8261C16.8914 22.9702 16.9486 23.1084 17.0505 23.2104C17.1525 23.3123 17.2907 23.3695 17.4348 23.3695H17.9783C18.1225 23.3695 18.2607 23.3123 18.3626 23.2104C18.4645 23.1084 18.5218 22.9702 18.5218 22.8261C18.5218 22.6819 18.4645 22.5437 18.3626 22.4418C18.2607 22.3399 18.1225 22.2826 17.9783 22.2826Z" fill="white"/>
<path d="M43.5217 6.52174H42.4348V2.17391C42.434 1.59759 42.2047 1.04508 41.7972 0.637558C41.3897 0.230034 40.8372 0.000754942 40.2609 0H17.4348C16.8584 0.000647312 16.3059 0.229892 15.8983 0.63744C15.4908 1.04499 15.2615 1.59755 15.2609 2.17391V11.9565H14.1739C13.5976 11.9572 13.045 12.1864 12.6374 12.594C12.2299 13.0015 12.0006 13.5541 12 14.1304V22.8261C12.0006 23.4024 12.2299 23.955 12.6374 24.3626C13.045 24.7701 13.5976 24.9994 14.1739 25H19.6087C20.185 24.9992 20.7375 24.77 21.1451 24.3624C21.5526 23.9549 21.7819 23.4024 21.7826 22.8261V21.1957H26.5211L26.2493 22.2826H24.5C24.3559 22.2826 24.2176 22.3399 24.1157 22.4418C24.0138 22.5437 23.9565 22.6819 23.9565 22.8261V24.4565C23.9565 24.6007 24.0138 24.7389 24.1157 24.8408C24.2176 24.9427 24.3559 25 24.5 25H43.5217C44.0981 24.9992 44.6506 24.77 45.0581 24.3624C45.4656 23.9549 45.6949 23.4024 45.6957 22.8261V8.69565C45.6949 8.11933 45.4656 7.56682 45.0581 7.1593C44.6506 6.75177 44.0981 6.52249 43.5217 6.52174ZM20.6957 22.8261C20.6953 23.1143 20.5806 23.3905 20.3769 23.5943C20.1731 23.798 19.8969 23.9127 19.6087 23.913H14.1739C13.8858 23.9127 13.6095 23.798 13.4057 23.5943C13.202 23.3905 13.0873 23.1143 13.087 22.8261V14.1304C13.0873 13.8423 13.202 13.566 13.4057 13.3623C13.6095 13.1585 13.8858 13.0439 14.1739 13.0435H14.8689L15.2887 14.3023C15.3248 14.4105 15.394 14.5046 15.4866 14.5713C15.5791 14.638 15.6903 14.6739 15.8043 14.6739H17.9783C18.0923 14.6739 18.2035 14.638 18.2961 14.5713C18.3886 14.5046 18.4578 14.4105 18.4939 14.3023L18.9137 13.0435H19.6087C19.8969 13.0439 20.1731 13.1585 20.3769 13.3623C20.5806 13.566 20.6953 13.8423 20.6957 14.1304V22.8261ZM16.0149 13.0435H17.7677L17.5863 13.587H16.1963L16.0149 13.0435ZM21.7826 20.1087V18.4783H31.5652V20.1087H21.7826ZM31.5652 21.1957V22.2826H31.4463L31.1746 21.1957H31.5652ZM30.3254 22.2826H27.3702L27.642 21.1957H30.0537L30.3254 22.2826ZM25.0435 23.913V23.3696H31.6338C31.6836 23.56 31.759 23.7429 31.858 23.913H25.0435ZM31.5652 8.69565V17.3913H21.7826V14.1304C21.7819 13.5541 21.5526 13.0016 21.1451 12.5941C20.7375 12.1866 20.185 11.9573 19.6087 11.9565H16.3478V2.17391C16.3482 1.88575 16.4628 1.6095 16.6666 1.40574C16.8704 1.20197 17.1466 1.08733 17.4348 1.08696H40.2609C40.549 1.08733 40.8253 1.20197 41.029 1.40574C41.2328 1.6095 41.3474 1.88575 41.3478 2.17391V6.52174H33.7391C33.1628 6.52249 32.6103 6.75177 32.2028 7.1593C31.7953 7.56682 31.566 8.11933 31.5652 8.69565ZM44.6087 22.8261C44.6083 23.1143 44.4937 23.3905 44.2899 23.5943C44.0862 23.798 43.8099 23.9127 43.5217 23.913H33.7391C33.451 23.9127 33.1747 23.798 32.971 23.5943C32.7672 23.3905 32.6526 23.1143 32.6522 22.8261V8.69565C32.6526 8.40749 32.7672 8.13124 32.971 7.92747C33.1747 7.72371 33.451 7.60907 33.7391 7.6087H43.5217C43.8099 7.60907 44.0862 7.72371 44.2899 7.92747C44.4937 8.13124 44.6083 8.40749 44.6087 8.69565V22.8261Z" fill="white"/>
<path d="M43.5218 8.15216H33.7392C33.595 8.15216 33.4568 8.20942 33.3549 8.31134C33.2529 8.41326 33.1957 8.5515 33.1957 8.69564V21.1956C33.1957 21.3398 33.2529 21.478 33.3549 21.5799C33.4568 21.6819 33.595 21.7391 33.7392 21.7391H43.5218C43.6659 21.7391 43.8041 21.6819 43.9061 21.5799C44.008 21.478 44.0652 21.3398 44.0652 21.1956V8.69564C44.0652 8.5515 44.008 8.41326 43.9061 8.31134C43.8041 8.20942 43.6659 8.15216 43.5218 8.15216ZM42.9783 20.6522H34.2826V9.23912H42.9783V20.6522Z" fill="white"/>
<path d="M38.0869 23.3695C38.3871 23.3695 38.6304 23.1262 38.6304 22.8261C38.6304 22.5259 38.3871 22.2826 38.0869 22.2826C37.7868 22.2826 37.5435 22.5259 37.5435 22.8261C37.5435 23.1262 37.7868 23.3695 38.0869 23.3695Z" fill="white"/>
</svg>
