<svg width="60" height="60" viewBox="0 0 60 60" fill="none" xmlns="http://www.w3.org/2000/svg">
<circle cx="30" cy="30" r="29.5" fill="#FE018F" stroke="#DE007D"/>
<g clip-path="url(#clip0_28_144)">
<path d="M36.4024 17.25H18.6727C16.7697 17.2525 15.2277 18.7945 15.2252 20.6975V38.3863C15.2277 40.2893 16.7697 41.8313 18.6727 41.8338H24.0901V40.8488H18.6727C17.3134 40.8472 16.2118 39.7456 16.2102 38.3863V30.0548H19.373C19.6649 30.0335 19.8842 29.7796 19.8628 29.4877C19.8587 29.4314 19.8457 29.3761 19.8241 29.324C19.3864 28.3279 19.839 27.1656 20.8351 26.7279C21.8312 26.2902 22.9934 26.7428 23.4311 27.7389C23.6531 28.2439 23.6531 28.8189 23.4311 29.324C23.3095 29.5785 23.4172 29.8834 23.6717 30.005C23.7375 30.0365 23.8094 30.0535 23.8823 30.0549H27.0451V33.0099C26.8824 32.9822 26.7176 32.9685 26.5526 32.969C24.9206 32.9684 23.5972 34.291 23.5966 35.9229C23.5961 37.0987 24.2928 38.1628 25.3706 38.6327L25.7646 37.7304C24.7669 37.2964 24.3099 36.1358 24.7439 35.1382C25.057 34.4183 25.7676 33.9531 26.5526 33.954C26.824 33.9539 27.0924 34.0106 27.3406 34.1204C27.5898 34.2292 27.8801 34.1153 27.9889 33.8661C28.016 33.804 28.03 33.737 28.0301 33.6693V30.0548H30.5344C30.5064 30.2175 30.4923 30.3823 30.4925 30.5473C30.4955 31.9506 31.4822 33.1594 32.8565 33.4432L33.0535 32.4784C32.1373 32.2888 31.4795 31.4829 31.4775 30.5473C31.4774 30.2759 31.5341 30.0075 31.644 29.7593C31.7528 29.5101 31.6389 29.2197 31.3896 29.111C31.3275 29.0839 31.2606 29.0699 31.1928 29.0698H28.0301V26.5655C28.1927 26.5935 28.3575 26.6076 28.5225 26.6074C30.1545 26.6074 31.4775 25.2844 31.4775 23.6524C31.4775 22.0204 30.1545 20.6975 28.5225 20.6975C28.3575 20.6973 28.1927 20.7113 28.0301 20.7393V18.235H36.4024C37.7617 18.2366 38.8633 19.3382 38.8649 20.6975V29.0698H35.7021C35.4301 29.07 35.2097 29.2906 35.2099 29.5626C35.2099 29.6303 35.2239 29.6973 35.251 29.7593C35.3608 30.0075 35.4175 30.2759 35.4175 30.5473H36.4024C36.4026 30.3823 36.3886 30.2175 36.3606 30.0548H39.3574C39.6294 30.0548 39.8499 29.8343 39.8499 29.5623V20.6975C39.8474 18.7945 38.3054 17.2525 36.4024 17.25ZM28.5225 21.6824C29.6105 21.6824 30.4925 22.5644 30.4925 23.6524C30.4925 24.7404 29.6105 25.6224 28.5225 25.6224C28.2511 25.6225 27.9827 25.5658 27.7346 25.4559C27.4853 25.3471 27.195 25.461 27.0862 25.7103C27.0591 25.7724 27.0451 25.8393 27.0451 25.9071V29.029H24.5442C24.5689 28.8797 24.5817 28.7287 24.5826 28.5774C24.5826 28.5685 24.5826 28.5606 24.5826 28.5517C24.5826 28.5429 24.5826 28.5414 24.5826 28.5365C24.5826 26.9045 23.2596 25.5815 21.6276 25.5815C19.9956 25.5815 18.6727 26.9045 18.6727 28.5365C18.6727 28.5414 18.6727 28.5468 18.6727 28.5517C18.6727 28.5567 18.6727 28.5685 18.6727 28.5774C18.6736 28.7287 18.6864 28.8797 18.7111 29.029H16.2102V20.6975C16.2118 19.3382 17.3134 18.2366 18.6727 18.235H27.0451V21.3978C27.0452 21.6698 27.2658 21.8902 27.5378 21.89C27.6055 21.89 27.6725 21.876 27.7346 21.8489C27.9827 21.7391 28.2511 21.6824 28.5225 21.6824Z" fill="white"/>
<path d="M43.7214 38.4184L39.581 35.5673L37.9907 31.3186C37.8959 31.0636 37.6123 30.9339 37.3574 31.0288C37.3483 31.0322 37.3392 31.0359 37.3303 31.0398L34.1291 32.4557C33.8891 32.5617 33.7744 32.8372 33.8681 33.0822C33.9213 33.2201 33.971 33.3245 34.0237 33.4329C34.0764 33.5412 34.1252 33.6427 34.1848 33.8027C34.5671 34.8242 34.0523 35.9627 33.0328 36.3504C32.0138 36.7315 30.8787 36.2145 30.4975 35.1954C30.4019 34.9398 30.3605 34.6671 30.3758 34.3947C30.3901 34.1231 30.1815 33.8913 29.9099 33.877C29.8418 33.8734 29.7737 33.884 29.71 33.9081L26.2881 35.197C26.0341 35.2927 25.9054 35.576 26.0005 35.8303L27.2288 39.1118C27.0659 39.1415 26.9061 39.1856 26.7511 39.2438C25.2185 39.8149 24.4391 41.5203 25.0102 43.0529C25.5813 44.5854 27.2867 45.3648 28.8193 44.7937C28.9771 44.7349 29.1296 44.6627 29.2751 44.578L30.1557 46.9301C30.2511 47.1849 30.5349 47.314 30.7896 47.2185C30.7899 47.2184 30.7902 47.2183 30.7905 47.2182L35.6701 45.3798C35.9766 46.0386 36.5407 46.5422 37.2298 46.7725L37.5411 45.8368C37.1352 45.7 36.7978 45.4117 36.5995 45.0321L38.0843 44.4731C38.5721 45.845 39.8714 46.7606 41.3274 46.7587V45.7738C39.9709 45.7654 38.8732 44.6678 38.8649 43.3113C38.8649 43.1807 38.813 43.0554 38.7206 42.9631L37.0058 41.2482C36.7515 40.9918 36.7228 40.588 36.9383 40.2982C37.0638 40.1289 37.2574 40.0233 37.4677 40.0096C37.6783 39.9919 37.8857 40.0694 38.0331 40.2209L41.4717 43.6595L42.1681 42.9631L41.1506 41.9456C41.4013 41.196 41.3858 40.3828 41.1068 39.6432L40.1838 37.1783L43.16 39.2275C43.5544 39.5044 43.7895 39.9561 43.7899 40.4381V46.7996H44.7748V40.4381C44.7742 39.6333 44.381 38.8795 43.7214 38.4184ZM40.1843 39.9884C40.3204 40.35 40.3696 40.7385 40.3281 41.1226L38.7295 39.5245C38.0696 38.8478 36.9861 38.8342 36.3094 39.494C35.6326 40.1538 35.619 41.2373 36.2788 41.9141C36.2889 41.9244 36.299 41.9346 36.3094 41.9446L37.8671 43.5024L30.9072 46.1239L29.9685 43.6156C29.9101 43.4598 29.7769 43.344 29.6144 43.3078C29.5793 43.3001 29.5435 43.2961 29.5075 43.296C29.3787 43.2959 29.255 43.3463 29.1628 43.4364C28.372 44.1836 27.1251 44.1482 26.3779 43.3573C25.6308 42.5665 25.6662 41.3196 26.457 40.5724C26.6431 40.3966 26.8615 40.2589 27.1002 40.1667C27.257 40.1085 27.4208 40.0715 27.5873 40.0563C27.6898 40.0438 27.7931 40.0403 27.8961 40.046C28.1677 40.0602 28.3995 39.8516 28.4137 39.58C28.4173 39.5124 28.4069 39.4449 28.3832 39.3816L27.0968 35.947L29.442 35.0639C29.7499 36.6666 31.2986 37.7163 32.9013 37.4086C33.0651 37.3771 33.2259 37.3319 33.382 37.2733C34.9092 36.6938 35.6811 34.9894 35.1092 33.4594C35.0639 33.3382 35.023 33.2422 34.9836 33.1565L37.2491 32.1533L40.1843 39.9884Z" fill="white"/>
</g>
<defs>
<clipPath id="clip0_28_144">
<rect width="30" height="30" fill="white" transform="translate(15 17.25)"/>
</clipPath>
</defs>
</svg>
