<svg width="81" height="57" xmlns="http://www.w3.org/2000/svg" fill="none">

 <g>
  <title>Layer 1</title>
  <path id="svg_1" fill="#D8D8D8" d="m60.2625,2.22977c-0.2554,-0.15136 -0.5713,-0.15727 -0.832,-0.0151l-9.1029,4.97045l0,-2.98234c-0.0027,-2.32006 -1.8828,-4.20015 -4.2028,-4.20278l-20.922,0c-2.3201,0.00263 -4.2002,1.88272 -4.2028,4.20278l0,16.59442c0.0026,2.3201 1.8827,4.2002 4.2028,4.2028l20.922,0c2.32,-0.0026 4.2001,-1.8827 4.2028,-4.2028l0,-2.9281l9.1033,4.9704c0.2603,0.1422 0.5765,0.1366 0.8316,-0.0148c0.2555,-0.1517 0.4118,-0.4265 0.4118,-0.723l0,-19.14924c0,-0.29683 -0.1566,-0.57132 -0.4118,-0.72269zm-11.6167,18.56773c-0.0013,1.3922 -1.1295,2.5201 -2.5217,2.5217l-20.9213,0c-1.3922,-0.0016 -2.52,-1.1295 -2.5217,-2.5217l0,-16.59472c0.0017,-1.39184 1.1295,-2.52002 2.5217,-2.52167l20.922,0c1.3918,0.00165 2.52,1.12983 2.5216,2.52167l-0.0006,16.59472zm10.3474,-0.1123l-8.6656,-4.7314l0,-6.85346l8.6656,-4.73109l0,16.31595z"/>
  <path id="svg_2" fill="#D8D8D8" d="m8.45312,48.9609c0,1.0052 -0.36458,1.7891 -1.09374,2.3516c-0.72917,0.5625 -1.71876,0.8437 -2.96876,0.8437c-1.35416,0 -2.39583,-0.1744 -3.125,-0.5234l0,-1.2812c0.46876,0.1979 0.97917,0.3541 1.53126,0.4687c0.55208,0.1146 1.09895,0.1719 1.64062,0.1719c0.88542,0 1.55208,-0.1667 2,-0.5c0.44792,-0.3386 0.67188,-0.8073 0.67188,-1.4063c0,-0.3958 -0.08073,-0.7187 -0.24219,-0.9687c-0.15625,-0.2552 -0.42188,-0.4896 -0.79688,-0.7031c-0.36979,-0.2136 -0.93489,-0.4558 -1.69531,-0.7266c-1.0625,-0.3802 -1.82292,-0.8307 -2.28125,-1.3516c-0.45313,-0.5208 -0.67969,-1.2005 -0.67969,-2.039c0,-0.8802 0.33073,-1.5808 0.99219,-2.1016c0.66146,-0.5208 1.53646,-0.7812 2.625,-0.7812c1.13542,0 2.17969,0.2083 3.13281,0.625l-0.41406,1.1562c-0.94271,-0.3958 -1.85938,-0.5937 -2.75,-0.5937c-0.70312,0 -1.2526,0.151 -1.64844,0.4531c-0.39583,0.3021 -0.59375,0.7213 -0.59375,1.2578c0,0.3958 0.07292,0.7214 0.21875,0.9766c0.14584,0.25 0.39063,0.4817 0.73438,0.6953c0.34896,0.2083 0.88021,0.4401 1.59375,0.6953c1.19791,0.4271 2.02083,0.8854 2.46875,1.375c0.45312,0.4896 0.67968,1.125 0.67968,1.9062zm4.90628,2.125c0.2291,0 0.4505,-0.0156 0.664,-0.0468c0.2136,-0.0365 0.3828,-0.073 0.5078,-0.1094l0,0.9922c-0.1406,0.0677 -0.3489,0.1224 -0.625,0.164c-0.2708,0.0469 -0.5156,0.0703 -0.7343,0.0703c-1.6563,0 -2.4844,-0.8723 -2.4844,-2.6171l0,-5.0938l-1.22656,0l0,-0.625l1.22656,-0.5391l0.5469,-1.8281l0.75,0l0,1.9844l2.4844,0l0,1.0078l-2.4844,0l0,5.0391c0,0.5156 0.1224,0.9114 0.3672,1.1875c0.2448,0.276 0.5807,0.414 1.0078,0.414zm10.2812,-3.375c0,1.3959 -0.3515,2.487 -1.0547,3.2735c-0.7031,0.7812 -1.6744,1.1718 -2.914,1.1718c-0.7657,0 -1.4453,-0.1796 -2.0391,-0.539c-0.5937,-0.3594 -1.0521,-0.875 -1.375,-1.5469c-0.3229,-0.6719 -0.4844,-1.4583 -0.4844,-2.3594c0,-1.3958 0.349,-2.4817 1.0469,-3.2578c0.6979,-0.7812 1.6667,-1.1719 2.9063,-1.1719c1.1979,0 2.1484,0.3985 2.8515,1.1954c0.7084,0.7968 1.0625,1.875 1.0625,3.2343zm-6.5234,0c0,1.0938 0.2187,1.9271 0.6562,2.5c0.4375,0.573 1.0808,0.8594 1.9297,0.8594c0.849,0 1.4922,-0.2838 1.9297,-0.8515c0.4427,-0.573 0.6641,-1.4089 0.6641,-2.5079c0,-1.0885 -0.2214,-1.914 -0.6641,-2.4765c-0.4375,-0.5677 -1.0859,-0.8516 -1.9453,-0.8516c-0.849,0 -1.4896,0.2787 -1.9219,0.836c-0.4323,0.5572 -0.6484,1.388 -0.6484,2.4921zm12.789,4.4453c-0.5572,0 -1.0677,-0.1015 -1.5312,-0.3046c-0.4583,-0.2084 -0.8438,-0.5261 -1.1562,-0.9532l-0.0938,0c0.0625,0.5 0.0938,0.974 0.0938,1.4219l0,3.5235l-1.2969,0l0,-12.4063l1.0547,0l0.1796,1.1719l0.0626,0c0.3333,-0.4688 0.7213,-0.8073 1.164,-1.0156c0.4427,-0.2084 0.9505,-0.3126 1.5234,-0.3126c1.1355,0 2.0105,0.3881 2.625,1.1641c0.6198,0.7761 0.9297,1.8646 0.9297,3.2656c0,1.4063 -0.3151,2.5 -0.9453,3.2813c-0.625,0.776 -1.4948,1.164 -2.6094,1.164zm-0.1874,-7.7734c-0.875,0 -1.5079,0.2422 -1.8985,0.7266c-0.3906,0.4844 -0.5911,1.2552 -0.6015,2.3125l0,0.289c0,1.2032 0.2005,2.0651 0.6015,2.586c0.4011,0.5156 1.0443,0.7734 1.9297,0.7734c0.7396,0 1.3177,-0.2995 1.7344,-0.8984c0.4218,-0.599 0.6328,-1.4245 0.6328,-2.4766c0,-1.0677 -0.211,-1.8854 -0.6328,-2.4531c-0.4167,-0.5729 -1.0052,-0.8594 -1.7656,-0.8594zm16.8906,-3.8047l1.4297,0l-4.1172,11.4219l-1.3125,0l-4.0938,-11.4219l1.4063,0l2.625,7.3907c0.3021,0.8489 0.5416,1.6744 0.7187,2.4765c0.1875,-0.8437 0.4323,-1.6849 0.7344,-2.5234l2.6094,-7.3438zm4.1094,11.4219l-1.2969,0l0,-8.5625l1.2969,0l0,8.5625zm-1.4063,-10.8828c0,-0.2969 0.0729,-0.513 0.2187,-0.6484c0.1459,-0.1407 0.3282,-0.211 0.5469,-0.211c0.2084,0 0.388,0.0703 0.5391,0.211c0.151,0.1406 0.2266,0.3567 0.2266,0.6484c0,0.2917 -0.0756,0.5104 -0.2266,0.6562c-0.1511,0.1407 -0.3307,0.211 -0.5391,0.211c-0.2187,0 -0.401,-0.0703 -0.5469,-0.211c-0.1458,-0.1458 -0.2187,-0.3645 -0.2187,-0.6562zm9.9844,9.7344l-0.0703,0c-0.599,0.8698 -1.4948,1.3046 -2.6875,1.3046c-1.1198,0 -1.9922,-0.3828 -2.6172,-1.1484c-0.6198,-0.7656 -0.9297,-1.8542 -0.9297,-3.2656c0,-1.4115 0.3125,-2.5078 0.9375,-3.2891c0.625,-0.7812 1.4948,-1.1719 2.6094,-1.1719c1.1614,0 2.052,0.4219 2.6718,1.2657l0.1016,0l-0.0547,-0.6172l-0.0312,-0.6016l0,-3.4843l1.2968,0l0,12.1562l-1.0546,0l-0.1719,-1.1484zm-2.5938,0.2187c0.8854,0 1.5261,-0.2396 1.9219,-0.7187c0.401,-0.4844 0.6016,-1.2631 0.6016,-2.336l0,-0.2734c0,-1.2136 -0.2032,-2.0781 -0.6094,-2.5938c-0.4011,-0.5208 -1.0443,-0.7812 -1.9297,-0.7812c-0.7604,0 -1.3437,0.2969 -1.75,0.8906c-0.401,0.5886 -0.6016,1.4219 -0.6016,2.5c0,1.0938 0.2006,1.9193 0.6016,2.4766c0.401,0.5573 0.9896,0.8359 1.7656,0.8359zm10.1953,1.0859c-1.2656,0 -2.2656,-0.3854 -3,-1.1562c-0.7291,-0.7708 -1.0937,-1.8411 -1.0937,-3.2109c0,-1.3802 0.3385,-2.4766 1.0156,-3.2891c0.6823,-0.8125 1.5964,-1.2188 2.7422,-1.2188c1.0729,0 1.9219,0.3542 2.5469,1.0626c0.625,0.7031 0.9375,1.6328 0.9375,2.789l0,0.8203l-5.8985,0c0.0261,1.0052 0.2787,1.7683 0.7578,2.2891c0.4844,0.5208 1.1641,0.7812 2.0391,0.7812c0.9219,0 1.8333,-0.1927 2.7344,-0.5781l0,1.1563c-0.4583,0.1979 -0.8932,0.3385 -1.3047,0.4218c-0.4062,0.0886 -0.8984,0.1328 -1.4766,0.1328zm-0.3515,-7.789c-0.6875,0 -1.237,0.2239 -1.6485,0.6719c-0.4062,0.4479 -0.6458,1.0677 -0.7187,1.8593l4.4765,0c0,-0.8177 -0.1822,-1.4427 -0.5468,-1.875c-0.3646,-0.4375 -0.8854,-0.6562 -1.5625,-0.6562zm13.1093,3.3437c0,1.3959 -0.3515,2.487 -1.0546,3.2735c-0.7032,0.7812 -1.6745,1.1718 -2.9141,1.1718c-0.7656,0 -1.4453,-0.1796 -2.0391,-0.539c-0.5937,-0.3594 -1.052,-0.875 -1.375,-1.5469c-0.3229,-0.6719 -0.4843,-1.4583 -0.4843,-2.3594c0,-1.3958 0.3489,-2.4817 1.0468,-3.2578c0.698,-0.7812 1.6667,-1.1719 2.9063,-1.1719c1.1979,0 2.1484,0.3985 2.8516,1.1954c0.7083,0.7968 1.0624,1.875 1.0624,3.2343zm-6.5234,0c0,1.0938 0.2188,1.9271 0.6563,2.5c0.4375,0.573 1.0807,0.8594 1.9297,0.8594c0.8489,0 1.4921,-0.2838 1.9296,-0.8515c0.4427,-0.573 0.6641,-1.4089 0.6641,-2.5079c0,-1.0885 -0.2214,-1.914 -0.6641,-2.4765c-0.4375,-0.5677 -1.0859,-0.8516 -1.9453,-0.8516c-0.8489,0 -1.4896,0.2787 -1.9219,0.836c-0.4322,0.5572 -0.6484,1.388 -0.6484,2.4921z"/>
  <path id="svg_9" d="m27.16634,7.33379l-2.81213,-2.81213l2.81162,-2.81213l-1.44542,-1.44644l-2.81213,2.81213l-2.81213,-2.81213l-1.44542,1.44644l2.81162,2.81213l-2.81213,2.81213l1.44644,1.44593l2.81162,-2.81213l2.81162,2.81213" stroke-opacity="0" stroke="#ff0000" fill="#ff0000"/>
 </g>
</svg>