<svg width="358" height="68" viewBox="0 0 358 68" fill="none" xmlns="http://www.w3.org/2000/svg">
<g filter="url(#filter0_bd_559_519)">
<rect x="4" width="350" height="60" rx="30" fill="#992064" fill-opacity="0.7"/>
<rect x="4.5" y="0.5" width="349" height="59" rx="29.5" stroke="#B08D96"/>
</g>
<path d="M160.329 40.7793C159.714 40.7793 159.178 40.7148 158.721 40.5859V38.3184C159.189 38.4355 159.617 38.4941 160.004 38.4941C160.602 38.4941 161.029 38.3066 161.287 37.9316C161.545 37.5625 161.674 36.9824 161.674 36.1914V24.1504H164.398V36.1738C164.398 37.6738 164.056 38.8164 163.37 39.6016C162.685 40.3867 161.671 40.7793 160.329 40.7793ZM179.296 30.5576C179.296 32.6846 178.769 34.3193 177.714 35.4619C176.659 36.6045 175.147 37.1758 173.179 37.1758C171.21 37.1758 169.698 36.6045 168.644 35.4619C167.589 34.3193 167.062 32.6787 167.062 30.54C167.062 28.4014 167.589 26.7695 168.644 25.6445C169.704 24.5137 171.222 23.9482 173.196 23.9482C175.171 23.9482 176.68 24.5166 177.723 25.6533C178.771 26.79 179.296 28.4248 179.296 30.5576ZM169.918 30.5576C169.918 31.9932 170.19 33.0742 170.735 33.8008C171.28 34.5273 172.095 34.8906 173.179 34.8906C175.353 34.8906 176.439 33.4463 176.439 30.5576C176.439 27.6631 175.358 26.2158 173.196 26.2158C172.112 26.2158 171.295 26.582 170.744 27.3145C170.193 28.041 169.918 29.1221 169.918 30.5576ZM181.959 37V24.1504H184.684V37H181.959ZM199.317 37H195.854L190.265 27.2793H190.186C190.297 28.9961 190.353 30.2207 190.353 30.9531V37H187.918V24.1504H191.354L196.936 33.7744H196.997C196.909 32.1045 196.865 30.9238 196.865 30.2324V24.1504H199.317V37Z" fill="#CDCDCD"/>
<defs>
<filter id="filter0_bd_559_519" x="-11" y="-15" width="380" height="90" filterUnits="userSpaceOnUse" color-interpolation-filters="sRGB">
<feFlood flood-opacity="0" result="BackgroundImageFix"/>
<feGaussianBlur in="BackgroundImage" stdDeviation="7.5"/>
<feComposite in2="SourceAlpha" operator="in" result="effect1_backgroundBlur_559_519"/>
<feColorMatrix in="SourceAlpha" type="matrix" values="0 0 0 0 0 0 0 0 0 0 0 0 0 0 0 0 0 0 127 0" result="hardAlpha"/>
<feOffset dy="4"/>
<feGaussianBlur stdDeviation="2"/>
<feColorMatrix type="matrix" values="0 0 0 0 0 0 0 0 0 0 0 0 0 0 0 0 0 0 0.25 0"/>
<feBlend mode="normal" in2="effect1_backgroundBlur_559_519" result="effect2_dropShadow_559_519"/>
<feBlend mode="normal" in="SourceGraphic" in2="effect2_dropShadow_559_519" result="shape"/>
</filter>
</defs>
</svg>
