<svg width="237" height="25" viewBox="0 0 237 25" fill="none" xmlns="http://www.w3.org/2000/svg">
<circle cx="7.5" cy="12.5" r="7" fill="white" fill-opacity="0.2" stroke="#CECECE"/>
<path d="M31.1348 19H29.0342V7.95215H25.2549V6.15039H34.9141V7.95215H31.1348V19ZM43.5273 19L43.2373 17.7256H43.1318C42.8447 18.1768 42.4346 18.5312 41.9014 18.7891C41.374 19.0469 40.7705 19.1758 40.0908 19.1758C38.9131 19.1758 38.0342 18.8828 37.4541 18.2969C36.874 17.7109 36.584 16.8232 36.584 15.6338V9.2793H38.667V15.2734C38.667 16.0176 38.8193 16.5771 39.124 16.9521C39.4287 17.3213 39.9062 17.5059 40.5566 17.5059C41.4238 17.5059 42.0596 17.248 42.4639 16.7324C42.874 16.2109 43.0791 15.3408 43.0791 14.1221V9.2793H45.1533V19H43.5273ZM53.0283 9.10352C53.4443 9.10352 53.7871 9.13281 54.0566 9.19141L53.8545 11.1162C53.5615 11.0459 53.2568 11.0107 52.9404 11.0107C52.1143 11.0107 51.4434 11.2803 50.9277 11.8193C50.418 12.3584 50.1631 13.0586 50.1631 13.9199V19H48.0977V9.2793H49.7148L49.9873 10.9932H50.0928C50.415 10.4131 50.834 9.95312 51.3496 9.61328C51.8711 9.27344 52.4307 9.10352 53.0283 9.10352ZM64.4189 19H62.3447V13.0234C62.3447 12.2734 62.1924 11.7139 61.8877 11.3447C61.5889 10.9756 61.1113 10.791 60.4551 10.791C59.582 10.791 58.9434 11.0488 58.5391 11.5645C58.1348 12.0801 57.9326 12.9443 57.9326 14.1572V19H55.8672V9.2793H57.4844L57.7744 10.5537H57.8799C58.1729 10.0908 58.5889 9.7334 59.1279 9.48145C59.667 9.22949 60.2646 9.10352 60.9209 9.10352C63.2529 9.10352 64.4189 10.29 64.4189 12.6631V19ZM80.5908 14.1221C80.5908 15.71 80.1836 16.9492 79.3691 17.8398C78.5547 18.7305 77.4209 19.1758 75.9678 19.1758C75.0596 19.1758 74.2568 18.9707 73.5596 18.5605C72.8623 18.1504 72.3262 17.5615 71.9512 16.7939C71.5762 16.0264 71.3887 15.1357 71.3887 14.1221C71.3887 12.5459 71.793 11.3154 72.6016 10.4307C73.4102 9.5459 74.5498 9.10352 76.0205 9.10352C77.4268 9.10352 78.54 9.55762 79.3604 10.4658C80.1807 11.3682 80.5908 12.5869 80.5908 14.1221ZM73.5156 14.1221C73.5156 16.3662 74.3447 17.4883 76.0029 17.4883C77.6436 17.4883 78.4639 16.3662 78.4639 14.1221C78.4639 11.9014 77.6377 10.791 75.9854 10.791C75.1182 10.791 74.4883 11.0781 74.0957 11.6523C73.709 12.2266 73.5156 13.0498 73.5156 14.1221ZM91.5244 19H89.4502V13.0234C89.4502 12.2734 89.2979 11.7139 88.9932 11.3447C88.6943 10.9756 88.2168 10.791 87.5605 10.791C86.6875 10.791 86.0488 11.0488 85.6445 11.5645C85.2402 12.0801 85.0381 12.9443 85.0381 14.1572V19H82.9727V9.2793H84.5898L84.8799 10.5537H84.9854C85.2783 10.0908 85.6943 9.7334 86.2334 9.48145C86.7725 9.22949 87.3701 9.10352 88.0264 9.10352C90.3584 9.10352 91.5244 10.29 91.5244 12.6631V19ZM102.695 17.5059C103.199 17.5059 103.703 17.4268 104.207 17.2686V18.8242C103.979 18.9238 103.683 19.0059 103.319 19.0703C102.962 19.1406 102.59 19.1758 102.203 19.1758C100.246 19.1758 99.2676 18.1445 99.2676 16.082V10.8438H97.9404V9.92969L99.3643 9.17383L100.067 7.11719H101.342V9.2793H104.11V10.8438H101.342V16.0469C101.342 16.5449 101.465 16.9141 101.711 17.1543C101.963 17.3887 102.291 17.5059 102.695 17.5059ZM114.71 19H112.636V13.0234C112.636 12.2734 112.483 11.7139 112.179 11.3447C111.88 10.9756 111.402 10.791 110.746 10.791C109.879 10.791 109.24 11.0518 108.83 11.5732C108.426 12.0889 108.224 12.9561 108.224 14.1748V19H106.158V5.32422H108.224V8.7959C108.224 9.35254 108.188 9.94727 108.118 10.5801H108.25C108.531 10.1113 108.921 9.74805 109.419 9.49023C109.923 9.23242 110.509 9.10352 111.177 9.10352C113.532 9.10352 114.71 10.29 114.71 12.6631V19ZM121.829 19.1758C120.317 19.1758 119.134 18.7363 118.278 17.8574C117.429 16.9727 117.004 15.7568 117.004 14.21C117.004 12.6221 117.399 11.374 118.19 10.4658C118.981 9.55762 120.068 9.10352 121.451 9.10352C122.734 9.10352 123.748 9.49316 124.492 10.2725C125.236 11.0518 125.608 12.124 125.608 13.4893V14.6055H119.131C119.16 15.5488 119.415 16.2754 119.896 16.7852C120.376 17.2891 121.053 17.541 121.926 17.541C122.5 17.541 123.033 17.4883 123.525 17.3828C124.023 17.2715 124.557 17.0898 125.125 16.8379V18.5166C124.621 18.7568 124.111 18.9268 123.596 19.0264C123.08 19.126 122.491 19.1758 121.829 19.1758ZM121.451 10.668C120.795 10.668 120.268 10.876 119.869 11.292C119.477 11.708 119.242 12.3145 119.166 13.1113H123.578C123.566 12.3086 123.373 11.7021 122.998 11.292C122.623 10.876 122.107 10.668 121.451 10.668ZM140.822 19H138.748V13.0059C138.748 12.2617 138.607 11.708 138.326 11.3447C138.045 10.9756 137.605 10.791 137.008 10.791C136.211 10.791 135.625 11.0518 135.25 11.5732C134.881 12.0889 134.696 12.9502 134.696 14.1572V19H132.631V9.2793H134.248L134.538 10.5537H134.644C134.913 10.0908 135.303 9.7334 135.812 9.48145C136.328 9.22949 136.894 9.10352 137.509 9.10352C139.003 9.10352 139.993 9.61328 140.479 10.6328H140.62C140.907 10.1523 141.312 9.77734 141.833 9.50781C142.354 9.23828 142.952 9.10352 143.626 9.10352C144.786 9.10352 145.63 9.39648 146.157 9.98242C146.69 10.5684 146.957 11.4619 146.957 12.6631V19H144.892V13.0059C144.892 12.2617 144.748 11.708 144.461 11.3447C144.18 10.9756 143.74 10.791 143.143 10.791C142.34 10.791 141.751 11.043 141.376 11.5469C141.007 12.0449 140.822 12.8125 140.822 13.8496V19ZM151.905 19H149.84V9.2793H151.905V19ZM149.717 6.7041C149.717 6.33496 149.816 6.05078 150.016 5.85156C150.221 5.65234 150.511 5.55273 150.886 5.55273C151.249 5.55273 151.53 5.65234 151.729 5.85156C151.935 6.05078 152.037 6.33496 152.037 6.7041C152.037 7.05566 151.935 7.33398 151.729 7.53906C151.53 7.73828 151.249 7.83789 150.886 7.83789C150.511 7.83789 150.221 7.73828 150.016 7.53906C149.816 7.33398 149.717 7.05566 149.717 6.7041ZM158.787 19.1758C157.316 19.1758 156.197 18.748 155.43 17.8926C154.668 17.0312 154.287 15.7979 154.287 14.1924C154.287 12.5576 154.686 11.3008 155.482 10.4219C156.285 9.54297 157.442 9.10352 158.954 9.10352C159.979 9.10352 160.902 9.29395 161.723 9.6748L161.099 11.3359C160.226 10.9961 159.505 10.8262 158.937 10.8262C157.255 10.8262 156.414 11.9424 156.414 14.1748C156.414 15.2646 156.622 16.085 157.038 16.6357C157.46 17.1807 158.075 17.4531 158.884 17.4531C159.804 17.4531 160.674 17.2246 161.494 16.7676V18.5693C161.125 18.7861 160.729 18.9414 160.308 19.0352C159.892 19.1289 159.385 19.1758 158.787 19.1758ZM168.71 9.10352C169.126 9.10352 169.469 9.13281 169.738 9.19141L169.536 11.1162C169.243 11.0459 168.938 11.0107 168.622 11.0107C167.796 11.0107 167.125 11.2803 166.609 11.8193C166.1 12.3584 165.845 13.0586 165.845 13.9199V19H163.779V9.2793H165.396L165.669 10.9932H165.774C166.097 10.4131 166.516 9.95312 167.031 9.61328C167.553 9.27344 168.112 9.10352 168.71 9.10352ZM180.171 14.1221C180.171 15.71 179.764 16.9492 178.949 17.8398C178.135 18.7305 177.001 19.1758 175.548 19.1758C174.64 19.1758 173.837 18.9707 173.14 18.5605C172.442 18.1504 171.906 17.5615 171.531 16.7939C171.156 16.0264 170.969 15.1357 170.969 14.1221C170.969 12.5459 171.373 11.3154 172.182 10.4307C172.99 9.5459 174.13 9.10352 175.601 9.10352C177.007 9.10352 178.12 9.55762 178.94 10.4658C179.761 11.3682 180.171 12.5869 180.171 14.1221ZM173.096 14.1221C173.096 16.3662 173.925 17.4883 175.583 17.4883C177.224 17.4883 178.044 16.3662 178.044 14.1221C178.044 11.9014 177.218 10.791 175.565 10.791C174.698 10.791 174.068 11.0781 173.676 11.6523C173.289 12.2266 173.096 13.0498 173.096 14.1221ZM187.483 19.1758C186.253 19.1758 185.298 18.7334 184.618 17.8486H184.495C184.577 18.6689 184.618 19.167 184.618 19.3428V23.3242H182.553V9.2793H184.223C184.27 9.46094 184.366 9.89453 184.513 10.5801H184.618C185.263 9.5957 186.229 9.10352 187.519 9.10352C188.731 9.10352 189.675 9.54297 190.349 10.4219C191.028 11.3008 191.368 12.5342 191.368 14.1221C191.368 15.71 191.022 16.9492 190.331 17.8398C189.646 18.7305 188.696 19.1758 187.483 19.1758ZM186.982 10.791C186.162 10.791 185.562 11.0312 185.181 11.5117C184.806 11.9922 184.618 12.7598 184.618 13.8145V14.1221C184.618 15.3057 184.806 16.1641 185.181 16.6973C185.556 17.2246 186.168 17.4883 187.018 17.4883C187.732 17.4883 188.283 17.1953 188.67 16.6094C189.057 16.0234 189.25 15.1885 189.25 14.1045C189.25 13.0146 189.057 12.1914 188.67 11.6348C188.289 11.0723 187.727 10.791 186.982 10.791ZM202.319 19H200.245V13.0234C200.245 12.2734 200.093 11.7139 199.788 11.3447C199.489 10.9756 199.012 10.791 198.355 10.791C197.488 10.791 196.85 11.0518 196.439 11.5732C196.035 12.0889 195.833 12.9561 195.833 14.1748V19H193.768V5.32422H195.833V8.7959C195.833 9.35254 195.798 9.94727 195.728 10.5801H195.859C196.141 10.1113 196.53 9.74805 197.028 9.49023C197.532 9.23242 198.118 9.10352 198.786 9.10352C201.142 9.10352 202.319 10.29 202.319 12.6631V19ZM213.815 14.1221C213.815 15.71 213.408 16.9492 212.594 17.8398C211.779 18.7305 210.646 19.1758 209.192 19.1758C208.284 19.1758 207.481 18.9707 206.784 18.5605C206.087 18.1504 205.551 17.5615 205.176 16.7939C204.801 16.0264 204.613 15.1357 204.613 14.1221C204.613 12.5459 205.018 11.3154 205.826 10.4307C206.635 9.5459 207.774 9.10352 209.245 9.10352C210.651 9.10352 211.765 9.55762 212.585 10.4658C213.405 11.3682 213.815 12.5869 213.815 14.1221ZM206.74 14.1221C206.74 16.3662 207.569 17.4883 209.228 17.4883C210.868 17.4883 211.688 16.3662 211.688 14.1221C211.688 11.9014 210.862 10.791 209.21 10.791C208.343 10.791 207.713 11.0781 207.32 11.6523C206.934 12.2266 206.74 13.0498 206.74 14.1221ZM224.749 19H222.675V13.0234C222.675 12.2734 222.522 11.7139 222.218 11.3447C221.919 10.9756 221.441 10.791 220.785 10.791C219.912 10.791 219.273 11.0488 218.869 11.5645C218.465 12.0801 218.263 12.9443 218.263 14.1572V19H216.197V9.2793H217.814L218.104 10.5537H218.21C218.503 10.0908 218.919 9.7334 219.458 9.48145C219.997 9.22949 220.595 9.10352 221.251 9.10352C223.583 9.10352 224.749 10.29 224.749 12.6631V19ZM231.868 19.1758C230.356 19.1758 229.173 18.7363 228.317 17.8574C227.468 16.9727 227.043 15.7568 227.043 14.21C227.043 12.6221 227.438 11.374 228.229 10.4658C229.021 9.55762 230.107 9.10352 231.49 9.10352C232.773 9.10352 233.787 9.49316 234.531 10.2725C235.275 11.0518 235.647 12.124 235.647 13.4893V14.6055H229.17C229.199 15.5488 229.454 16.2754 229.935 16.7852C230.415 17.2891 231.092 17.541 231.965 17.541C232.539 17.541 233.072 17.4883 233.564 17.3828C234.062 17.2715 234.596 17.0898 235.164 16.8379V18.5166C234.66 18.7568 234.15 18.9268 233.635 19.0264C233.119 19.126 232.53 19.1758 231.868 19.1758ZM231.49 10.668C230.834 10.668 230.307 10.876 229.908 11.292C229.516 11.708 229.281 12.3145 229.205 13.1113H233.617C233.605 12.3086 233.412 11.7021 233.037 11.292C232.662 10.876 232.146 10.668 231.49 10.668Z" fill="white"/>
</svg>
