<svg width="39" height="56.99999999999999" xmlns="http://www.w3.org/2000/svg" fill="none">

 <g>
  <title>Layer 1</title>
  <path id="svg_1" fill="#D8D8D8" d="m27.2092,13.4317c0,-0.4116 -0.3338,-0.7454 -0.7455,-0.7454c-0.4118,0 -0.7456,0.3338 -0.7456,0.7454c0,3.6469 -2.9667,6.6136 -6.6136,6.6136c-3.6466,0 -6.6133,-2.9667 -6.6133,-6.6136c0,-0.4116 -0.3338,-0.7454 -0.7456,-0.7454c-0.4118,0 -0.7456,0.3338 -0.7456,0.7454c0,4.2178 3.2383,7.6924 7.3589,8.07l0,2.0071l-2.7668,0c-0.4118,0 -0.7455,0.3338 -0.7455,0.7456c0,0.4118 0.3337,0.7456 0.7455,0.7456l7.025,0c0.4116,0 0.7454,-0.3338 0.7454,-0.7456c0,-0.4118 -0.3338,-0.7456 -0.7454,-0.7456l-2.767,0l0,-2.0071c4.1208,-0.3774 7.3591,-3.8522 7.3591,-8.07z"/>
  <path stroke="null" id="svg_2" fill="#D8D8D8" d="m19.1045,18.2057c2.6324,0 4.7739,-2.1416 4.7739,-4.7739l0,-8.65808c0,-2.63215 -2.1415,-4.77372 -4.7739,-4.77372c-2.6321,0 -4.7737,2.14157 -4.7737,4.77372l0,8.65808c0,2.6323 2.1416,4.7739 4.7737,4.7739zm-3.2827,-13.43198c0,-1.81008 1.4726,-3.28255 3.2827,-3.28255c1.8101,0 3.2828,1.47247 3.2828,3.28255l0,8.65808c0,1.81 -1.4727,3.2827 -3.2828,3.2827c-1.8101,0 -3.2827,-1.4727 -3.2827,-3.2827l0,-8.65808z"/>
  <path id="svg_3" fill="#D8D8D8" d="m6.66406,52l-3.875,-10.125l-0.0625,0c0.07292,0.8021 0.10938,1.7552 0.10938,2.8594l0,7.2656l-1.22656,0l0,-11.4219l2,0l3.61718,9.4219l0.0625,0l3.64844,-9.4219l1.9844,0l0,11.4219l-1.3281,0l0,-7.3594c0,-0.8437 0.0364,-1.7604 0.1093,-2.75l-0.0625,0l-3.90622,10.1094l-1.07032,0zm10.42184,-8.5625l0,5.5547c0,0.6979 0.1589,1.2187 0.4766,1.5625c0.3177,0.3437 0.8151,0.5156 1.4922,0.5156c0.8958,0 1.5495,-0.2448 1.9609,-0.7344c0.4167,-0.4895 0.625,-1.289 0.625,-2.3984l0,-4.5l1.2969,0l0,8.5625l-1.0703,0l-0.1875,-1.1484l-0.0703,0c-0.2656,0.4218 -0.6354,0.7448 -1.1094,0.9687c-0.4688,0.224 -1.0052,0.3359 -1.6094,0.3359c-1.0416,0 -1.8229,-0.2473 -2.3437,-0.7421c-0.5157,-0.4948 -0.7735,-1.2865 -0.7735,-2.375l0,-5.6016l1.3125,0zm11.375,7.6484c0.2292,0 0.4506,-0.0156 0.6641,-0.0468c0.2135,-0.0365 0.3828,-0.073 0.5078,-0.1094l0,0.9922c-0.1406,0.0677 -0.3489,0.1224 -0.625,0.164c-0.2708,0.0469 -0.5156,0.0703 -0.7344,0.0703c-1.6562,0 -2.4843,-0.8723 -2.4843,-2.6171l0,-5.0938l-1.2266,0l0,-0.625l1.2266,-0.5391l0.5468,-1.8281l0.75,0l0,1.9844l2.4844,0l0,1.0078l-2.4844,0l0,5.0391c0,0.5156 0.1224,0.9114 0.3672,1.1875c0.2448,0.276 0.5808,0.414 1.0078,0.414zm6.5079,1.0703c-1.2657,0 -2.2657,-0.3854 -3,-1.1562c-0.7292,-0.7708 -1.0938,-1.8411 -1.0938,-3.2109c0,-1.3802 0.3385,-2.4766 1.0156,-3.2891c0.6823,-0.8125 1.5964,-1.2188 2.7422,-1.2188c1.0729,0 1.9219,0.3542 2.5469,1.0626c0.625,0.7031 0.9375,1.6328 0.9375,2.789l0,0.8203l-5.8984,0c0.026,1.0052 0.2786,1.7683 0.7578,2.2891c0.4843,0.5208 1.164,0.7812 2.039,0.7812c0.9219,0 1.8334,-0.1927 2.7344,-0.5781l0,1.1563c-0.4583,0.1979 -0.8932,0.3385 -1.3047,0.4218c-0.4062,0.0886 -0.8984,0.1328 -1.4765,0.1328zm-0.3516,-7.789c-0.6875,0 -1.237,0.2239 -1.6484,0.6719c-0.4063,0.4479 -0.6459,1.0677 -0.7188,1.8593l4.4766,0c0,-0.8177 -0.1823,-1.4427 -0.5469,-1.875c-0.3646,-0.4375 -0.8854,-0.6562 -1.5625,-0.6562z"/>
  <path stroke="#ff0000" id="svg_19" d="m20.30753,7.41818l-2.97697,-2.97697l2.97643,-2.97697l-1.53015,-1.53123l-2.97697,2.97697l-2.97697,-2.97697l-1.53015,1.53123l2.97643,2.97697l-2.97697,2.97697l1.53123,1.53069l2.97643,-2.97697l2.97643,2.97697" stroke-opacity="0" fill="#ff0000"/>
 </g>
</svg>