<svg width="39" height="57" viewBox="0 0 39 57" fill="none" xmlns="http://www.w3.org/2000/svg">
<path d="M27.2092 13.4317C27.2092 13.0201 26.8754 12.6863 26.4637 12.6863C26.0519 12.6863 25.7181 13.0201 25.7181 13.4317C25.7181 17.0786 22.7514 20.0453 19.1045 20.0453C15.4579 20.0453 12.4912 17.0786 12.4912 13.4317C12.4912 13.0201 12.1574 12.6863 11.7456 12.6863C11.3338 12.6863 11 13.0201 11 13.4317C11 17.6495 14.2383 21.1241 18.3589 21.5017V23.5088H15.5921C15.1803 23.5088 14.8466 23.8426 14.8466 24.2544C14.8466 24.6662 15.1803 25 15.5921 25H22.6171C23.0287 25 23.3625 24.6662 23.3625 24.2544C23.3625 23.8426 23.0287 23.5088 22.6171 23.5088H19.8501V21.5017C23.9709 21.1243 27.2092 17.6495 27.2092 13.4317Z" fill="white"/>
<path d="M19.1045 18.2057C21.7369 18.2057 23.8784 16.0641 23.8784 13.4318V4.77372C23.8784 2.14157 21.7369 0 19.1045 0C16.4724 0 14.3308 2.14157 14.3308 4.77372V13.4318C14.3308 16.0641 16.4724 18.2057 19.1045 18.2057ZM15.8218 4.77372C15.8218 2.96364 17.2944 1.49117 19.1045 1.49117C20.9146 1.49117 22.3873 2.96364 22.3873 4.77372V13.4318C22.3873 15.2418 20.9146 16.7145 19.1045 16.7145C17.2944 16.7145 15.8218 15.2418 15.8218 13.4318V4.77372Z" fill="white"/>
<path d="M6.66406 52L2.78906 41.875H2.72656C2.79948 42.6771 2.83594 43.6302 2.83594 44.7344V52H1.60938V40.5781H3.60938L7.22656 50H7.28906L10.9375 40.5781H12.9219V52H11.5938V44.6406C11.5938 43.7969 11.6302 42.8802 11.7031 41.8906H11.6406L7.73438 52H6.66406ZM17.0859 43.4375V48.9922C17.0859 49.6901 17.2448 50.2109 17.5625 50.5547C17.8802 50.8984 18.3776 51.0703 19.0547 51.0703C19.9505 51.0703 20.6042 50.8255 21.0156 50.3359C21.4323 49.8464 21.6406 49.0469 21.6406 47.9375V43.4375H22.9375V52H21.8672L21.6797 50.8516H21.6094C21.3438 51.2734 20.974 51.5964 20.5 51.8203C20.0312 52.0443 19.4948 52.1562 18.8906 52.1562C17.849 52.1562 17.0677 51.9089 16.5469 51.4141C16.0312 50.9193 15.7734 50.1276 15.7734 49.0391V43.4375H17.0859ZM28.4609 51.0859C28.6901 51.0859 28.9115 51.0703 29.125 51.0391C29.3385 51.0026 29.5078 50.9661 29.6328 50.9297V51.9219C29.4922 51.9896 29.2839 52.0443 29.0078 52.0859C28.737 52.1328 28.4922 52.1562 28.2734 52.1562C26.6172 52.1562 25.7891 51.2839 25.7891 49.5391V44.4453H24.5625V43.8203L25.7891 43.2812L26.3359 41.4531H27.0859V43.4375H29.5703V44.4453H27.0859V49.4844C27.0859 50 27.2083 50.3958 27.4531 50.6719C27.6979 50.9479 28.0339 51.0859 28.4609 51.0859ZM34.9688 52.1562C33.7031 52.1562 32.7031 51.7708 31.9688 51C31.2396 50.2292 30.875 49.1589 30.875 47.7891C30.875 46.4089 31.2135 45.3125 31.8906 44.5C32.5729 43.6875 33.487 43.2812 34.6328 43.2812C35.7057 43.2812 36.5547 43.6354 37.1797 44.3438C37.8047 45.0469 38.1172 45.9766 38.1172 47.1328V47.9531H32.2188C32.2448 48.9583 32.4974 49.7214 32.9766 50.2422C33.4609 50.763 34.1406 51.0234 35.0156 51.0234C35.9375 51.0234 36.849 50.8307 37.75 50.4453V51.6016C37.2917 51.7995 36.8568 51.9401 36.4453 52.0234C36.0391 52.112 35.5469 52.1562 34.9688 52.1562ZM34.6172 44.3672C33.9297 44.3672 33.3802 44.5911 32.9688 45.0391C32.5625 45.487 32.3229 46.1068 32.25 46.8984H36.7266C36.7266 46.0807 36.5443 45.4557 36.1797 45.0234C35.8151 44.5859 35.2943 44.3672 34.6172 44.3672Z" fill="white"/>
</svg>
