<svg width="208" height="247" viewBox="0 0 208 247" fill="#4A2E3E" xmlns="http://www.w3.org/2000/svg">
<path d="M51.8789 241H48.0312L41.8203 230.199H41.7324C41.8561 232.107 41.918 233.467 41.918 234.281V241H39.2129V226.723H43.0312L49.2324 237.416H49.3008C49.2031 235.561 49.1543 234.249 49.1543 233.48V226.723H51.8789V241ZM59.7695 231.996C59.138 231.996 58.6432 232.198 58.2852 232.602C57.9271 232.999 57.722 233.565 57.6699 234.301H61.8496C61.8366 233.565 61.6445 232.999 61.2734 232.602C60.9023 232.198 60.401 231.996 59.7695 231.996ZM60.1895 241.195C58.4316 241.195 57.0579 240.71 56.0684 239.74C55.0788 238.77 54.584 237.396 54.584 235.619C54.584 233.79 55.0397 232.377 55.9512 231.381C56.8691 230.378 58.1354 229.877 59.75 229.877C61.293 229.877 62.4941 230.316 63.3535 231.195C64.2129 232.074 64.6426 233.288 64.6426 234.838V236.283H57.6016C57.6341 237.13 57.8848 237.79 58.3535 238.266C58.8223 238.741 59.4798 238.979 60.3262 238.979C60.9837 238.979 61.6055 238.91 62.1914 238.773C62.7773 238.637 63.3893 238.419 64.0273 238.119V240.424C63.5065 240.684 62.9499 240.876 62.3574 241C61.765 241.13 61.0423 241.195 60.1895 241.195ZM76.0391 241L75.1992 237.182L74.0664 232.357H73.998L72.0059 241H68.8027L65.6973 230.082H68.666L69.9258 234.916C70.1276 235.782 70.3327 236.977 70.541 238.5H70.5996C70.6257 238.005 70.7396 237.221 70.9414 236.146L71.0977 235.316L72.4453 230.082H75.7266L77.0059 235.316C77.0319 235.46 77.071 235.671 77.123 235.951C77.1816 236.231 77.237 236.531 77.2891 236.85C77.3411 237.162 77.3867 237.471 77.4258 237.777C77.4714 238.077 77.4974 238.318 77.5039 238.5H77.5625C77.6211 238.031 77.7253 237.39 77.875 236.576C78.0247 235.756 78.1322 235.202 78.1973 234.916L79.5059 230.082H82.4258L79.2812 241H76.0391ZM95.668 241L92.2305 229.799H92.1426C92.2663 232.077 92.3281 233.598 92.3281 234.359V241H89.623V226.723H93.7441L97.123 237.641H97.1816L100.766 226.723H104.887V241H102.064V234.242C102.064 233.923 102.068 233.555 102.074 233.139C102.087 232.722 102.133 231.615 102.211 229.818H102.123L98.4414 241H95.668ZM112.777 231.996C112.146 231.996 111.651 232.198 111.293 232.602C110.935 232.999 110.73 233.565 110.678 234.301H114.857C114.844 233.565 114.652 232.999 114.281 232.602C113.91 232.198 113.409 231.996 112.777 231.996ZM113.197 241.195C111.439 241.195 110.066 240.71 109.076 239.74C108.087 238.77 107.592 237.396 107.592 235.619C107.592 233.79 108.048 232.377 108.959 231.381C109.877 230.378 111.143 229.877 112.758 229.877C114.301 229.877 115.502 230.316 116.361 231.195C117.221 232.074 117.65 233.288 117.65 234.838V236.283H110.609C110.642 237.13 110.893 237.79 111.361 238.266C111.83 238.741 112.488 238.979 113.334 238.979C113.992 238.979 114.613 238.91 115.199 238.773C115.785 238.637 116.397 238.419 117.035 238.119V240.424C116.514 240.684 115.958 240.876 115.365 241C114.773 241.13 114.05 241.195 113.197 241.195ZM124.594 231.996C123.962 231.996 123.467 232.198 123.109 232.602C122.751 232.999 122.546 233.565 122.494 234.301H126.674C126.661 233.565 126.469 232.999 126.098 232.602C125.727 232.198 125.225 231.996 124.594 231.996ZM125.014 241.195C123.256 241.195 121.882 240.71 120.893 239.74C119.903 238.77 119.408 237.396 119.408 235.619C119.408 233.79 119.864 232.377 120.775 231.381C121.693 230.378 122.96 229.877 124.574 229.877C126.117 229.877 127.318 230.316 128.178 231.195C129.037 232.074 129.467 233.288 129.467 234.838V236.283H122.426C122.458 237.13 122.709 237.79 123.178 238.266C123.646 238.741 124.304 238.979 125.15 238.979C125.808 238.979 126.43 238.91 127.016 238.773C127.602 238.637 128.214 238.419 128.852 238.119V240.424C128.331 240.684 127.774 240.876 127.182 241C126.589 241.13 125.867 241.195 125.014 241.195ZM136.488 238.822C137.009 238.822 137.634 238.708 138.363 238.48V240.697C137.621 241.029 136.71 241.195 135.629 241.195C134.438 241.195 133.568 240.896 133.021 240.297C132.481 239.691 132.211 238.786 132.211 237.582V232.318H130.785V231.059L132.426 230.062L133.285 227.758H135.189V230.082H138.246V232.318H135.189V237.582C135.189 238.005 135.307 238.318 135.541 238.52C135.782 238.721 136.098 238.822 136.488 238.822ZM140.453 227.26C140.453 226.29 140.993 225.805 142.074 225.805C143.155 225.805 143.695 226.29 143.695 227.26C143.695 227.722 143.559 228.083 143.285 228.344C143.018 228.598 142.615 228.725 142.074 228.725C140.993 228.725 140.453 228.236 140.453 227.26ZM143.559 241H140.58V230.082H143.559V241ZM156.771 241H153.793V234.623C153.793 233.835 153.653 233.246 153.373 232.855C153.093 232.458 152.647 232.26 152.035 232.26C151.202 232.26 150.6 232.54 150.229 233.1C149.857 233.653 149.672 234.574 149.672 235.863V241H146.693V230.082H148.969L149.369 231.479H149.535C149.867 230.951 150.323 230.554 150.902 230.287C151.488 230.014 152.152 229.877 152.895 229.877C154.164 229.877 155.128 230.222 155.785 230.912C156.443 231.596 156.771 232.585 156.771 233.881V241ZM169.34 230.082V231.596L167.631 232.035C167.943 232.523 168.1 233.07 168.1 233.676C168.1 234.848 167.689 235.762 166.869 236.42C166.055 237.071 164.923 237.396 163.471 237.396L162.934 237.367L162.494 237.318C162.188 237.553 162.035 237.813 162.035 238.1C162.035 238.529 162.582 238.744 163.676 238.744H165.531C166.729 238.744 167.641 239.001 168.266 239.516C168.897 240.03 169.213 240.785 169.213 241.781C169.213 243.057 168.679 244.047 167.611 244.75C166.55 245.453 165.023 245.805 163.031 245.805C161.508 245.805 160.342 245.538 159.535 245.004C158.734 244.477 158.334 243.734 158.334 242.777C158.334 242.12 158.539 241.57 158.949 241.127C159.359 240.684 159.962 240.368 160.756 240.18C160.45 240.049 160.183 239.838 159.955 239.545C159.727 239.245 159.613 238.93 159.613 238.598C159.613 238.181 159.734 237.836 159.975 237.562C160.215 237.283 160.564 237.009 161.02 236.742C160.447 236.495 159.991 236.098 159.652 235.551C159.32 235.004 159.154 234.359 159.154 233.617C159.154 232.426 159.542 231.505 160.316 230.854C161.091 230.202 162.198 229.877 163.637 229.877C163.943 229.877 164.304 229.906 164.721 229.965C165.144 230.017 165.414 230.056 165.531 230.082H169.34ZM160.912 242.543C160.912 242.953 161.107 243.275 161.498 243.51C161.895 243.744 162.449 243.861 163.158 243.861C164.226 243.861 165.062 243.715 165.668 243.422C166.273 243.129 166.576 242.729 166.576 242.221C166.576 241.811 166.397 241.527 166.039 241.371C165.681 241.215 165.128 241.137 164.379 241.137H162.836C162.289 241.137 161.83 241.264 161.459 241.518C161.094 241.778 160.912 242.12 160.912 242.543ZM161.996 233.656C161.996 234.249 162.13 234.717 162.396 235.062C162.67 235.408 163.083 235.58 163.637 235.58C164.197 235.58 164.607 235.408 164.867 235.062C165.128 234.717 165.258 234.249 165.258 233.656C165.258 232.341 164.717 231.684 163.637 231.684C162.543 231.684 161.996 232.341 161.996 233.656Z" fill="white"/>
<g filter="url(#filter0_bd_28_633)">
<circle cx="104" cy="100" r="100" fill="black" fill-opacity="0.2"/>
<circle cx="104" cy="100" r="99.5" stroke="#CDCDCD"/>
</g>
<g clip-path="url(#clip0_28_633)">
<path d="M110.565 70.6236H64.9409C58.9234 70.6236 54 75.547 54 81.5646V118.435C54 124.453 58.9234 129.376 64.9409 129.376H110.565C116.582 129.376 121.505 124.453 121.505 118.435V81.5646C121.505 75.4376 116.582 70.6236 110.565 70.6236Z" fill="white"/>
<path d="M145.904 76.6411C145.248 76.7505 144.591 77.0788 144.044 77.407L126.977 87.2538V112.637L144.154 122.484C147.327 124.344 151.265 123.249 153.125 120.077C153.672 119.092 154.001 117.998 154.001 116.794V82.9869C154.001 78.9387 150.171 75.6564 145.904 76.6411Z" fill="white"/>
</g>
<defs>
<filter id="filter0_bd_28_633" x="-11" y="-15" width="230" height="230" filterUnits="userSpaceOnUse" color-interpolation-filters="sRGB">
<feFlood flood-opacity="0" result="BackgroundImageFix"/>
<feGaussianBlur in="BackgroundImage" stdDeviation="7.5"/>
<feComposite in2="SourceAlpha" operator="in" result="effect1_backgroundBlur_28_633"/>
<feColorMatrix in="SourceAlpha" type="matrix" values="0 0 0 0 0 0 0 0 0 0 0 0 0 0 0 0 0 0 127 0" result="hardAlpha"/>
<feOffset dy="4"/>
<feGaussianBlur stdDeviation="2"/>
<feColorMatrix type="matrix" values="0 0 0 0 0 0 0 0 0 0 0 0 0 0 0 0 0 0 0.25 0"/>
<feBlend mode="normal" in2="effect1_backgroundBlur_28_633" result="effect2_dropShadow_28_633"/>
<feBlend mode="normal" in="SourceGraphic" in2="effect2_dropShadow_28_633" result="shape"/>
</filter>
<clipPath id="clip0_28_633">
<rect width="100" height="100" fill="white" transform="translate(54 50)"/>
</clipPath>
</defs>
</svg>
