<svg width="208" height="247" viewBox="0 0 208 247" fill="#4A2E3E" xmlns="http://www.w3.org/2000/svg">
<path d="M84.6719 245.199C83.9883 245.199 83.3926 245.128 82.8848 244.984V242.465C83.4056 242.595 83.8809 242.66 84.3105 242.66C84.9746 242.66 85.4499 242.452 85.7363 242.035C86.0228 241.625 86.166 240.98 86.166 240.102V226.723H89.1934V240.082C89.1934 241.749 88.8125 243.018 88.0508 243.891C87.2891 244.763 86.1628 245.199 84.6719 245.199ZM94.9258 235.521C94.9258 236.602 95.1016 237.419 95.4531 237.973C95.8112 238.526 96.3906 238.803 97.1914 238.803C97.9857 238.803 98.5553 238.529 98.9004 237.982C99.252 237.429 99.4277 236.609 99.4277 235.521C99.4277 234.441 99.252 233.63 98.9004 233.09C98.5488 232.549 97.9727 232.279 97.1719 232.279C96.3776 232.279 95.8047 232.549 95.4531 233.09C95.1016 233.624 94.9258 234.434 94.9258 235.521ZM102.475 235.521C102.475 237.299 102.006 238.689 101.068 239.691C100.131 240.694 98.8255 241.195 97.1523 241.195C96.1042 241.195 95.1797 240.967 94.3789 240.512C93.5781 240.049 92.9629 239.389 92.5332 238.529C92.1035 237.67 91.8887 236.667 91.8887 235.521C91.8887 233.738 92.3542 232.351 93.2852 231.361C94.2161 230.372 95.5247 229.877 97.2109 229.877C98.2591 229.877 99.1836 230.105 99.9844 230.561C100.785 231.016 101.4 231.671 101.83 232.523C102.26 233.376 102.475 234.376 102.475 235.521ZM104.809 227.26C104.809 226.29 105.349 225.805 106.43 225.805C107.51 225.805 108.051 226.29 108.051 227.26C108.051 227.722 107.914 228.083 107.641 228.344C107.374 228.598 106.97 228.725 106.43 228.725C105.349 228.725 104.809 228.236 104.809 227.26ZM107.914 241H104.936V230.082H107.914V241ZM121.127 241H118.148V234.623C118.148 233.835 118.008 233.246 117.729 232.855C117.449 232.458 117.003 232.26 116.391 232.26C115.557 232.26 114.955 232.54 114.584 233.1C114.213 233.653 114.027 234.574 114.027 235.863V241H111.049V230.082H113.324L113.725 231.479H113.891C114.223 230.951 114.678 230.554 115.258 230.287C115.844 230.014 116.508 229.877 117.25 229.877C118.52 229.877 119.483 230.222 120.141 230.912C120.798 231.596 121.127 232.585 121.127 233.881V241Z" fill="white"/>
<g filter="url(#filter0_bd_28_637)">
<circle cx="104" cy="100" r="100" fill="black" fill-opacity="0.2"/>
<circle cx="104" cy="100" r="99.5" stroke="#CDCDCD"/>
</g>
<g clip-path="url(#clip0_28_637)">
<path d="M78.2608 150C71.8725 150 65.8397 147.469 61.1852 142.814C56.3116 137.941 53.7659 131.555 54.0167 124.833C54.2758 117.891 57.412 111.223 63.0862 105.549L73.3026 95.2905C74.8248 93.7618 77.2981 93.7567 78.8268 95.2792C80.3553 96.8015 80.3606 99.2749 78.8381 100.803L68.6162 111.067C60.3329 119.351 59.5512 130.132 66.7098 137.29C73.8686 144.449 84.6496 143.668 92.9269 135.389L106.967 121.349C111.223 117.094 113.57 112.234 113.754 107.297C113.923 102.772 112.188 98.4515 108.868 95.1319C107.756 94.0198 106.525 93.0761 105.21 92.3271C103.336 91.2593 102.682 88.8739 103.749 86.9995C104.817 85.1249 107.203 84.471 109.077 85.5386C110.998 86.6331 112.787 88.0023 114.393 89.6079C119.266 94.4815 121.812 100.867 121.561 107.589C121.302 114.531 118.166 121.2 112.492 126.874L98.4513 140.914C92.7769 146.588 86.1086 149.724 79.1666 149.984C78.8643 149.994 78.5617 150 78.2608 150ZM104.251 113.001C105.318 111.126 104.664 108.741 102.79 107.673C101.475 106.924 100.244 105.981 99.1316 104.869C91.973 97.7099 92.7547 86.9288 101.032 78.6511L115.073 64.6109C123.351 56.3334 134.132 55.5515 141.29 62.7101C148.449 69.8687 147.667 80.6497 139.383 88.9331L129.162 99.197C127.639 100.725 127.644 103.199 129.173 104.721C130.701 106.244 133.175 106.238 134.697 104.71L144.914 94.4517C150.588 88.7775 153.724 82.1089 153.983 75.1671C154.234 68.4455 151.688 62.0595 146.815 57.1859C141.941 52.3121 135.552 49.7668 128.833 50.0172C121.891 50.2764 115.223 53.4125 109.549 59.0867L95.5082 73.1269C89.834 78.8011 86.698 85.4697 86.4387 92.4114C86.1879 99.1331 88.7336 105.519 93.6072 110.393C95.2129 111.998 97.0013 113.367 98.923 114.462C99.5332 114.809 100.197 114.975 100.853 114.975C102.211 114.974 103.53 114.265 104.251 113.001Z" fill="white"/>
</g>
<defs>
<filter id="filter0_bd_28_637" x="-11" y="-15" width="230" height="230" filterUnits="userSpaceOnUse" color-interpolation-filters="sRGB">
<feFlood flood-opacity="0" result="BackgroundImageFix"/>
<feGaussianBlur in="BackgroundImage" stdDeviation="7.5"/>
<feComposite in2="SourceAlpha" operator="in" result="effect1_backgroundBlur_28_637"/>
<feColorMatrix in="SourceAlpha" type="matrix" values="0 0 0 0 0 0 0 0 0 0 0 0 0 0 0 0 0 0 127 0" result="hardAlpha"/>
<feOffset dy="4"/>
<feGaussianBlur stdDeviation="2"/>
<feColorMatrix type="matrix" values="0 0 0 0 0 0 0 0 0 0 0 0 0 0 0 0 0 0 0.25 0"/>
<feBlend mode="normal" in2="effect1_backgroundBlur_28_637" result="effect2_dropShadow_28_637"/>
<feBlend mode="normal" in="SourceGraphic" in2="effect2_dropShadow_28_637" result="shape"/>
</filter>
<clipPath id="clip0_28_637">
<rect width="100" height="100" fill="white" transform="translate(54 50)"/>
</clipPath>
</defs>
</svg>
