<svg width="208" height="247" viewBox="0 0 208 247" fill="#4A2E3E" xmlns="http://www.w3.org/2000/svg">
<path d="M69.2246 237.035C69.2246 238.324 68.7591 239.34 67.8281 240.082C66.9036 240.824 65.6146 241.195 63.9609 241.195C62.4375 241.195 61.0898 240.909 59.918 240.336V237.523C60.8815 237.953 61.6953 238.256 62.3594 238.432C63.0299 238.607 63.6419 238.695 64.1953 238.695C64.8594 238.695 65.3672 238.568 65.7188 238.314C66.0768 238.061 66.2559 237.683 66.2559 237.182C66.2559 236.902 66.1777 236.654 66.0215 236.439C65.8652 236.218 65.6341 236.007 65.3281 235.805C65.0286 235.603 64.4134 235.281 63.4824 234.838C62.61 234.428 61.9557 234.034 61.5195 233.656C61.0833 233.279 60.735 232.839 60.4746 232.338C60.2142 231.837 60.084 231.251 60.084 230.58C60.084 229.317 60.5104 228.324 61.3633 227.602C62.2227 226.879 63.4076 226.518 64.918 226.518C65.6602 226.518 66.3665 226.605 67.0371 226.781C67.7142 226.957 68.4206 227.204 69.1562 227.523L68.1797 229.877C67.418 229.564 66.7865 229.346 66.2852 229.223C65.7904 229.099 65.3021 229.037 64.8203 229.037C64.2474 229.037 63.8079 229.171 63.502 229.438C63.196 229.704 63.043 230.053 63.043 230.482C63.043 230.749 63.1048 230.984 63.2285 231.186C63.3522 231.381 63.5475 231.573 63.8145 231.762C64.0879 231.944 64.7292 232.276 65.7383 232.758C67.0729 233.396 67.9876 234.037 68.4824 234.682C68.9772 235.32 69.2246 236.104 69.2246 237.035ZM76.0117 241.195C72.6133 241.195 70.9141 239.33 70.9141 235.6C70.9141 233.744 71.3763 232.328 72.3008 231.352C73.2253 230.368 74.5501 229.877 76.2754 229.877C77.5384 229.877 78.6712 230.124 79.6738 230.619L78.7949 232.924C78.3262 232.735 77.89 232.582 77.4863 232.465C77.0827 232.341 76.679 232.279 76.2754 232.279C74.7259 232.279 73.9512 233.38 73.9512 235.58C73.9512 237.715 74.7259 238.783 76.2754 238.783C76.8483 238.783 77.3789 238.708 77.8672 238.559C78.3555 238.402 78.8438 238.161 79.332 237.836V240.385C78.8503 240.691 78.362 240.902 77.8672 241.02C77.3789 241.137 76.7604 241.195 76.0117 241.195ZM91.9492 241H88.9707V234.623C88.9707 233.048 88.3848 232.26 87.2129 232.26C86.3796 232.26 85.7773 232.543 85.4062 233.109C85.0352 233.676 84.8496 234.594 84.8496 235.863V241H81.8711V225.805H84.8496V228.9C84.8496 229.141 84.8268 229.708 84.7812 230.6L84.7129 231.479H84.8691C85.5332 230.411 86.5879 229.877 88.0332 229.877C89.3158 229.877 90.2891 230.222 90.9531 230.912C91.6172 231.602 91.9492 232.592 91.9492 233.881V241ZM99.5371 231.996C98.9056 231.996 98.4108 232.198 98.0527 232.602C97.6947 232.999 97.4896 233.565 97.4375 234.301H101.617C101.604 233.565 101.412 232.999 101.041 232.602C100.67 232.198 100.169 231.996 99.5371 231.996ZM99.957 241.195C98.1992 241.195 96.8255 240.71 95.8359 239.74C94.8464 238.77 94.3516 237.396 94.3516 235.619C94.3516 233.79 94.8073 232.377 95.7188 231.381C96.6367 230.378 97.903 229.877 99.5176 229.877C101.061 229.877 102.262 230.316 103.121 231.195C103.98 232.074 104.41 233.288 104.41 234.838V236.283H97.3691C97.4017 237.13 97.6523 237.79 98.1211 238.266C98.5898 238.741 99.2474 238.979 100.094 238.979C100.751 238.979 101.373 238.91 101.959 238.773C102.545 238.637 103.157 238.419 103.795 238.119V240.424C103.274 240.684 102.717 240.876 102.125 241C101.533 241.13 100.81 241.195 99.957 241.195ZM110.289 241.195C109.007 241.195 107.997 240.697 107.262 239.701C106.533 238.705 106.168 237.325 106.168 235.561C106.168 233.77 106.539 232.377 107.281 231.381C108.03 230.378 109.059 229.877 110.367 229.877C111.741 229.877 112.789 230.411 113.512 231.479H113.609C113.46 230.665 113.385 229.939 113.385 229.301V225.805H116.373V241H114.088L113.512 239.584H113.385C112.708 240.658 111.676 241.195 110.289 241.195ZM111.334 238.822C112.096 238.822 112.652 238.601 113.004 238.158C113.362 237.715 113.557 236.964 113.59 235.902V235.58C113.59 234.408 113.408 233.568 113.043 233.061C112.685 232.553 112.099 232.299 111.285 232.299C110.621 232.299 110.104 232.582 109.732 233.148C109.368 233.708 109.186 234.525 109.186 235.6C109.186 236.674 109.371 237.481 109.742 238.021C110.113 238.555 110.644 238.822 111.334 238.822ZM127.223 241L126.822 239.604H126.666C126.347 240.111 125.895 240.505 125.309 240.785C124.723 241.059 124.055 241.195 123.307 241.195C122.024 241.195 121.057 240.854 120.406 240.17C119.755 239.48 119.43 238.49 119.43 237.201V230.082H122.408V236.459C122.408 237.247 122.548 237.839 122.828 238.236C123.108 238.627 123.554 238.822 124.166 238.822C124.999 238.822 125.602 238.546 125.973 237.992C126.344 237.432 126.529 236.508 126.529 235.219V230.082H129.508V241H127.223ZM135.611 241H132.633V225.805H135.611V241ZM143.268 231.996C142.636 231.996 142.141 232.198 141.783 232.602C141.425 232.999 141.22 233.565 141.168 234.301H145.348C145.335 233.565 145.143 232.999 144.771 232.602C144.4 232.198 143.899 231.996 143.268 231.996ZM143.688 241.195C141.93 241.195 140.556 240.71 139.566 239.74C138.577 238.77 138.082 237.396 138.082 235.619C138.082 233.79 138.538 232.377 139.449 231.381C140.367 230.378 141.633 229.877 143.248 229.877C144.791 229.877 145.992 230.316 146.852 231.195C147.711 232.074 148.141 233.288 148.141 234.838V236.283H141.1C141.132 237.13 141.383 237.79 141.852 238.266C142.32 238.741 142.978 238.979 143.824 238.979C144.482 238.979 145.104 238.91 145.689 238.773C146.275 238.637 146.887 238.419 147.525 238.119V240.424C147.005 240.684 146.448 240.876 145.855 241C145.263 241.13 144.54 241.195 143.688 241.195Z" fill="white"/>
<g filter="url(#filter0_bd_28_668)">
<circle cx="104" cy="100" r="100" fill="black" fill-opacity="0.2"/>
<circle cx="104" cy="100" r="99.5" stroke="#CDCDCD"/>
</g>
<path d="M129.391 94.9219C131.548 94.9219 133.297 93.173 133.297 91.0156C133.297 88.8583 131.548 87.1094 129.391 87.1094C127.233 87.1094 125.484 88.8583 125.484 91.0156C125.484 93.173 127.233 94.9219 129.391 94.9219Z" fill="white"/>
<path d="M138.375 57.8125H133.297V53.9062C133.297 51.7488 131.548 50 129.391 50C127.233 50 125.484 51.7488 125.484 53.9062V57.8125H107.711V53.9062C107.711 51.7488 105.962 50 103.805 50C101.647 50 99.8984 51.7488 99.8984 53.9062V57.8125H82.3203V53.9062C82.3203 51.7488 80.5715 50 78.4141 50C76.2566 50 74.5078 51.7488 74.5078 53.9062V57.8125H69.625C61.0094 57.8125 54 64.8219 54 73.4375V134.375C54 142.991 61.0094 150 69.625 150H99.5078C101.665 150 103.414 148.251 103.414 146.094C103.414 143.936 101.665 142.188 99.5078 142.188H69.625C65.3172 142.188 61.8125 138.683 61.8125 134.375V73.4375C61.8125 69.1297 65.3172 65.625 69.625 65.625H74.5078V69.5312C74.5078 71.6887 76.2566 73.4375 78.4141 73.4375C80.5715 73.4375 82.3203 71.6887 82.3203 69.5312V65.625H99.8984V69.5312C99.8984 71.6887 101.647 73.4375 103.805 73.4375C105.962 73.4375 107.711 71.6887 107.711 69.5312V65.625H125.484V69.5312C125.484 71.6887 127.233 73.4375 129.391 73.4375C131.548 73.4375 133.297 71.6887 133.297 69.5312V65.625H138.375C142.683 65.625 146.188 69.1297 146.188 73.4375V95.7031C146.188 97.8605 147.936 99.6094 150.094 99.6094C152.251 99.6094 154 97.8605 154 95.7031V73.4375C154 64.8219 146.991 57.8125 138.375 57.8125Z" fill="white"/>
<path d="M130.367 102.734C117.336 102.734 106.734 113.336 106.734 126.367C106.734 139.398 117.336 150 130.367 150C143.398 150 154 139.398 154 126.367C154 113.336 143.398 102.734 130.367 102.734ZM130.367 142.188C121.644 142.188 114.547 135.091 114.547 126.367C114.547 117.644 121.644 110.547 130.367 110.547C139.09 110.547 146.188 117.644 146.188 126.367C146.188 135.091 139.09 142.188 130.367 142.188Z" fill="white"/>
<path d="M136.031 122.461H134.273V118.359C134.273 116.202 132.525 114.453 130.367 114.453C128.21 114.453 126.461 116.202 126.461 118.359V126.367C126.461 128.525 128.21 130.273 130.367 130.273H136.031C138.189 130.273 139.938 128.525 139.938 126.367C139.938 124.21 138.189 122.461 136.031 122.461Z" fill="white"/>
<path d="M112.398 94.9219C114.556 94.9219 116.305 93.173 116.305 91.0156C116.305 88.8583 114.556 87.1094 112.398 87.1094C110.241 87.1094 108.492 88.8583 108.492 91.0156C108.492 93.173 110.241 94.9219 112.398 94.9219Z" fill="white"/>
<path d="M95.4062 111.914C97.5636 111.914 99.3125 110.165 99.3125 108.008C99.3125 105.85 97.5636 104.102 95.4062 104.102C93.2489 104.102 91.5 105.85 91.5 108.008C91.5 110.165 93.2489 111.914 95.4062 111.914Z" fill="white"/>
<path d="M78.4141 94.9219C80.5714 94.9219 82.3203 93.173 82.3203 91.0156C82.3203 88.8583 80.5714 87.1094 78.4141 87.1094C76.2567 87.1094 74.5078 88.8583 74.5078 91.0156C74.5078 93.173 76.2567 94.9219 78.4141 94.9219Z" fill="white"/>
<path d="M78.4141 111.914C80.5714 111.914 82.3203 110.165 82.3203 108.008C82.3203 105.85 80.5714 104.102 78.4141 104.102C76.2567 104.102 74.5078 105.85 74.5078 108.008C74.5078 110.165 76.2567 111.914 78.4141 111.914Z" fill="white"/>
<path d="M78.4141 128.906C80.5714 128.906 82.3203 127.157 82.3203 125C82.3203 122.843 80.5714 121.094 78.4141 121.094C76.2567 121.094 74.5078 122.843 74.5078 125C74.5078 127.157 76.2567 128.906 78.4141 128.906Z" fill="white"/>
<path d="M95.4062 128.906C97.5636 128.906 99.3125 127.157 99.3125 125C99.3125 122.843 97.5636 121.094 95.4062 121.094C93.2489 121.094 91.5 122.843 91.5 125C91.5 127.157 93.2489 128.906 95.4062 128.906Z" fill="white"/>
<path d="M95.4062 94.9219C97.5636 94.9219 99.3125 93.173 99.3125 91.0156C99.3125 88.8583 97.5636 87.1094 95.4062 87.1094C93.2489 87.1094 91.5 88.8583 91.5 91.0156C91.5 93.173 93.2489 94.9219 95.4062 94.9219Z" fill="white"/>
<defs>
<filter id="filter0_bd_28_668" x="-11" y="-15" width="230" height="230" filterUnits="userSpaceOnUse" color-interpolation-filters="sRGB">
<feFlood flood-opacity="0" result="BackgroundImageFix"/>
<feGaussianBlur in="BackgroundImage" stdDeviation="7.5"/>
<feComposite in2="SourceAlpha" operator="in" result="effect1_backgroundBlur_28_668"/>
<feColorMatrix in="SourceAlpha" type="matrix" values="0 0 0 0 0 0 0 0 0 0 0 0 0 0 0 0 0 0 127 0" result="hardAlpha"/>
<feOffset dy="4"/>
<feGaussianBlur stdDeviation="2"/>
<feColorMatrix type="matrix" values="0 0 0 0 0 0 0 0 0 0 0 0 0 0 0 0 0 0 0.25 0"/>
<feBlend mode="normal" in2="effect1_backgroundBlur_28_668" result="effect2_dropShadow_28_668"/>
<feBlend mode="normal" in="SourceGraphic" in2="effect2_dropShadow_28_668" result="shape"/>
</filter>
</defs>
</svg>
