<svg width="112" height="57" viewBox="0 0 112 57" fill="none" xmlns="http://www.w3.org/2000/svg">
<path d="M54.0037 6.79947H41.6478C41.2861 6.80932 40.9984 7.10619 41 7.46804V15.6295C41.0017 15.9779 41.2855 16.259 41.6339 16.2573C41.6385 16.2573 41.6431 16.2572 41.6478 16.2571H44.5628V16.9048H43.9834C43.6257 16.9048 43.3356 17.1948 43.3356 17.5526C43.3356 17.9104 43.6257 18.2004 43.9834 18.2004H51.668C52.0258 18.2004 52.3158 17.9104 52.3158 17.5526C52.3158 17.1948 52.0258 16.9048 51.668 16.9048H51.1054V16.2571H54.0037C54.3614 16.2571 54.6682 15.9872 54.6682 15.6295V7.46804C54.6621 7.10295 54.3688 6.80789 54.0037 6.79947ZM49.8098 16.9048H45.8584V16.2571H49.8098V16.9048ZM53.3726 14.9615H42.2956V8.09503H53.3726V14.9615Z" fill="white"/>
<path d="M70.9273 6.79947H58.5714C58.2064 6.80789 57.9131 7.10295 57.907 7.46804V15.6295C57.907 15.9872 58.2137 16.2571 58.5714 16.2571H61.4698V16.9048H60.9071C60.5493 16.9048 60.2593 17.1948 60.2593 17.5526C60.2593 17.9104 60.5493 18.2004 60.9071 18.2004H68.5917C68.9495 18.2004 69.2395 17.9104 69.2395 17.5526C69.2395 17.1948 68.9495 16.9048 68.5917 16.9048H68.0123V16.2571H70.9273C71.2757 16.2664 71.5655 15.9916 71.5749 15.6434C71.5751 15.6388 71.5751 15.6342 71.5751 15.6295V7.46804C71.5767 7.10619 71.2891 6.80932 70.9273 6.79947ZM66.7168 16.9048H62.7653V16.2571H66.7168V16.9048ZM70.2796 14.9615H59.2025V8.09503H70.2796V14.9615Z" fill="white"/>
<path d="M62.3618 2.0015C62.3617 2.00143 62.3616 2.0013 62.3615 2.00124L60.55 0.189719C60.297 -0.0632396 59.8869 -0.0632396 59.6339 0.189719C59.3839 0.435552 59.3805 0.837435 59.6263 1.08748C59.6289 1.09 59.6314 1.09253 59.6339 1.09506L60.3612 1.81157H41.6478C41.29 1.81157 41 2.10158 41 2.45935C41 2.81712 41.29 3.10713 41.6478 3.10713H60.318L59.634 3.80194C59.3795 4.05755 59.3802 4.47116 59.6359 4.72574C59.7571 4.84649 59.9209 4.91489 60.0921 4.91612C60.2637 4.91684 60.4287 4.84901 60.5501 4.72768L62.3615 2.91694C62.6144 2.66424 62.6145 2.25433 62.3618 2.0015Z" fill="white"/>
<path d="M70.9275 21.8927H52.2572L52.9412 21.1979C53.1942 20.9428 53.1942 20.5315 52.9412 20.2765C52.689 20.0227 52.2789 20.0216 52.0251 20.2738L50.2138 22.0838C49.961 22.3363 49.9608 22.746 50.2133 22.9988C50.2134 22.9989 50.2136 22.9991 50.2138 22.9992L52.0253 24.8103C52.2782 25.0632 52.6884 25.0632 52.9414 24.8103C53.1913 24.5644 53.1948 24.1626 52.9489 23.9125C52.9464 23.91 52.9439 23.9075 52.9414 23.9049L52.214 23.1883H70.9275C71.2852 23.1883 71.5752 22.8983 71.5752 22.5405C71.5752 22.1828 71.2852 21.8927 70.9275 21.8927Z" fill="white"/>
<path d="M8.22656 48.9609C8.22656 49.9661 7.86198 50.75 7.13281 51.3125C6.40365 51.875 5.41406 52.1562 4.16406 52.1562C2.8099 52.1562 1.76823 51.9818 1.03906 51.6328V50.3516C1.50781 50.5495 2.01823 50.7057 2.57031 50.8203C3.1224 50.9349 3.66927 50.9922 4.21094 50.9922C5.09635 50.9922 5.76302 50.8255 6.21094 50.4922C6.65885 50.1536 6.88281 49.6849 6.88281 49.0859C6.88281 48.6901 6.80208 48.3672 6.64062 48.1172C6.48438 47.862 6.21875 47.6276 5.84375 47.4141C5.47396 47.2005 4.90885 46.9583 4.14844 46.6875C3.08594 46.3073 2.32552 45.8568 1.86719 45.3359C1.41406 44.8151 1.1875 44.1354 1.1875 43.2969C1.1875 42.4167 1.51823 41.7161 2.17969 41.1953C2.84115 40.6745 3.71615 40.4141 4.80469 40.4141C5.9401 40.4141 6.98438 40.6224 7.9375 41.0391L7.52344 42.1953C6.58073 41.7995 5.66406 41.6016 4.77344 41.6016C4.07031 41.6016 3.52083 41.7526 3.125 42.0547C2.72917 42.3568 2.53125 42.776 2.53125 43.3125C2.53125 43.7083 2.60417 44.0339 2.75 44.2891C2.89583 44.5391 3.14062 44.7708 3.48438 44.9844C3.83333 45.1927 4.36458 45.4245 5.07812 45.6797C6.27604 46.1068 7.09896 46.5651 7.54688 47.0547C8 47.5443 8.22656 48.1797 8.22656 48.9609ZM13.7891 52.1562C12.5495 52.1562 11.5885 51.776 10.9062 51.0156C10.2292 50.25 9.89062 49.1693 9.89062 47.7734C9.89062 46.3411 10.2344 45.2344 10.9219 44.4531C11.6146 43.6719 12.599 43.2812 13.875 43.2812C14.2865 43.2812 14.6979 43.3255 15.1094 43.4141C15.5208 43.5026 15.8438 43.6068 16.0781 43.7266L15.6797 44.8281C15.3932 44.7135 15.0807 44.6198 14.7422 44.5469C14.4036 44.4688 14.1042 44.4297 13.8438 44.4297C12.1042 44.4297 11.2344 45.5391 11.2344 47.7578C11.2344 48.8099 11.4453 49.6172 11.8672 50.1797C12.2943 50.7422 12.9245 51.0234 13.7578 51.0234C14.4714 51.0234 15.2031 50.8698 15.9531 50.5625V51.7109C15.3802 52.0078 14.6589 52.1562 13.7891 52.1562ZM21.8984 43.2812C22.2786 43.2812 22.6198 43.3125 22.9219 43.375L22.7422 44.5781C22.388 44.5 22.0755 44.4609 21.8047 44.4609C21.112 44.4609 20.5182 44.7422 20.0234 45.3047C19.5339 45.8672 19.2891 46.5677 19.2891 47.4062V52H17.9922V43.4375H19.0625L19.2109 45.0234H19.2734C19.5911 44.4661 19.974 44.0365 20.4219 43.7344C20.8698 43.4323 21.362 43.2812 21.8984 43.2812ZM28.1406 52.1562C26.875 52.1562 25.875 51.7708 25.1406 51C24.4115 50.2292 24.0469 49.1589 24.0469 47.7891C24.0469 46.4089 24.3854 45.3125 25.0625 44.5C25.7448 43.6875 26.6589 43.2812 27.8047 43.2812C28.8776 43.2812 29.7266 43.6354 30.3516 44.3438C30.9766 45.0469 31.2891 45.9766 31.2891 47.1328V47.9531H25.3906C25.4167 48.9583 25.6693 49.7214 26.1484 50.2422C26.6328 50.763 27.3125 51.0234 28.1875 51.0234C29.1094 51.0234 30.0208 50.8307 30.9219 50.4453V51.6016C30.4635 51.7995 30.0286 51.9401 29.6172 52.0234C29.2109 52.112 28.7188 52.1562 28.1406 52.1562ZM27.7891 44.3672C27.1016 44.3672 26.5521 44.5911 26.1406 45.0391C25.7344 45.487 25.4948 46.1068 25.4219 46.8984H29.8984C29.8984 46.0807 29.7161 45.4557 29.3516 45.0234C28.987 44.5859 28.4661 44.3672 27.7891 44.3672ZM37.125 52.1562C35.8594 52.1562 34.8594 51.7708 34.125 51C33.3958 50.2292 33.0312 49.1589 33.0312 47.7891C33.0312 46.4089 33.3698 45.3125 34.0469 44.5C34.7292 43.6875 35.6432 43.2812 36.7891 43.2812C37.862 43.2812 38.7109 43.6354 39.3359 44.3438C39.9609 45.0469 40.2734 45.9766 40.2734 47.1328V47.9531H34.375C34.401 48.9583 34.6536 49.7214 35.1328 50.2422C35.6172 50.763 36.2969 51.0234 37.1719 51.0234C38.0938 51.0234 39.0052 50.8307 39.9062 50.4453V51.6016C39.4479 51.7995 39.013 51.9401 38.6016 52.0234C38.1953 52.112 37.7031 52.1562 37.125 52.1562ZM36.7734 44.3672C36.0859 44.3672 35.5365 44.5911 35.125 45.0391C34.7188 45.487 34.4792 46.1068 34.4062 46.8984H38.8828C38.8828 46.0807 38.7005 45.4557 38.3359 45.0234C37.9714 44.5859 37.4505 44.3672 36.7734 44.3672ZM48.3516 52V46.4609C48.3516 45.763 48.1927 45.2422 47.875 44.8984C47.5573 44.5547 47.0599 44.3828 46.3828 44.3828C45.487 44.3828 44.8307 44.625 44.4141 45.1094C43.9974 45.5938 43.7891 46.3932 43.7891 47.5078V52H42.4922V43.4375H43.5469L43.7578 44.6094H43.8203C44.0859 44.1875 44.4583 43.862 44.9375 43.6328C45.4167 43.3984 45.9505 43.2812 46.5391 43.2812C47.5703 43.2812 48.3464 43.5312 48.8672 44.0312C49.388 44.526 49.6484 45.3203 49.6484 46.4141V52H48.3516ZM63.1172 48.9609C63.1172 49.9661 62.7526 50.75 62.0234 51.3125C61.2943 51.875 60.3047 52.1562 59.0547 52.1562C57.7005 52.1562 56.6589 51.9818 55.9297 51.6328V50.3516C56.3984 50.5495 56.9089 50.7057 57.4609 50.8203C58.013 50.9349 58.5599 50.9922 59.1016 50.9922C59.987 50.9922 60.6536 50.8255 61.1016 50.4922C61.5495 50.1536 61.7734 49.6849 61.7734 49.0859C61.7734 48.6901 61.6927 48.3672 61.5312 48.1172C61.375 47.862 61.1094 47.6276 60.7344 47.4141C60.3646 47.2005 59.7995 46.9583 59.0391 46.6875C57.9766 46.3073 57.2161 45.8568 56.7578 45.3359C56.3047 44.8151 56.0781 44.1354 56.0781 43.2969C56.0781 42.4167 56.4089 41.7161 57.0703 41.1953C57.7318 40.6745 58.6068 40.4141 59.6953 40.4141C60.8307 40.4141 61.875 40.6224 62.8281 41.0391L62.4141 42.1953C61.4714 41.7995 60.5547 41.6016 59.6641 41.6016C58.9609 41.6016 58.4115 41.7526 58.0156 42.0547C57.6198 42.3568 57.4219 42.776 57.4219 43.3125C57.4219 43.7083 57.4948 44.0339 57.6406 44.2891C57.7865 44.5391 58.0312 44.7708 58.375 44.9844C58.724 45.1927 59.2552 45.4245 59.9688 45.6797C61.1667 46.1068 61.9896 46.5651 62.4375 47.0547C62.8906 47.5443 63.1172 48.1797 63.1172 48.9609ZM71.1172 52V46.4609C71.1172 45.763 70.9583 45.2422 70.6406 44.8984C70.3229 44.5547 69.8255 44.3828 69.1484 44.3828C68.2474 44.3828 67.5885 44.6276 67.1719 45.1172C66.7604 45.6068 66.5547 46.4089 66.5547 47.5234V52H65.2578V39.8438H66.5547V43.5234C66.5547 43.9661 66.5339 44.3333 66.4922 44.625H66.5703C66.8255 44.2135 67.1875 43.8906 67.6562 43.6562C68.1302 43.4167 68.6693 43.2969 69.2734 43.2969C70.3203 43.2969 71.1042 43.5469 71.625 44.0469C72.151 44.5417 72.4141 45.3307 72.4141 46.4141V52H71.1172ZM80.3516 52L80.0938 50.7812H80.0312C79.6042 51.3177 79.1771 51.6823 78.75 51.875C78.3281 52.0625 77.7995 52.1562 77.1641 52.1562C76.3151 52.1562 75.6484 51.9375 75.1641 51.5C74.6849 51.0625 74.4453 50.4401 74.4453 49.6328C74.4453 47.9036 75.8281 46.9974 78.5938 46.9141L80.0469 46.8672V46.3359C80.0469 45.6641 79.901 45.1693 79.6094 44.8516C79.3229 44.5286 78.862 44.3672 78.2266 44.3672C77.513 44.3672 76.7057 44.5859 75.8047 45.0234L75.4062 44.0312C75.8281 43.8021 76.2891 43.6224 76.7891 43.4922C77.2943 43.362 77.7995 43.2969 78.3047 43.2969C79.3255 43.2969 80.0807 43.5234 80.5703 43.9766C81.0651 44.4297 81.3125 45.1562 81.3125 46.1562V52H80.3516ZM77.4219 51.0859C78.2292 51.0859 78.862 50.8646 79.3203 50.4219C79.7839 49.9792 80.0156 49.3594 80.0156 48.5625V47.7891L78.7188 47.8438C77.6875 47.8802 76.9427 48.0417 76.4844 48.3281C76.0312 48.6094 75.8047 49.0495 75.8047 49.6484C75.8047 50.1172 75.9453 50.474 76.2266 50.7188C76.513 50.9635 76.9115 51.0859 77.4219 51.0859ZM87.8984 43.2812C88.2786 43.2812 88.6198 43.3125 88.9219 43.375L88.7422 44.5781C88.388 44.5 88.0755 44.4609 87.8047 44.4609C87.112 44.4609 86.5182 44.7422 86.0234 45.3047C85.5339 45.8672 85.2891 46.5677 85.2891 47.4062V52H83.9922V43.4375H85.0625L85.2109 45.0234H85.2734C85.5911 44.4661 85.974 44.0365 86.4219 43.7344C86.8698 43.4323 87.362 43.2812 87.8984 43.2812ZM91.8203 52H90.5234V43.4375H91.8203V52ZM90.4141 41.1172C90.4141 40.8203 90.487 40.6042 90.6328 40.4688C90.7786 40.3281 90.9609 40.2578 91.1797 40.2578C91.388 40.2578 91.5677 40.3281 91.7188 40.4688C91.8698 40.6094 91.9453 40.8255 91.9453 41.1172C91.9453 41.4089 91.8698 41.6276 91.7188 41.7734C91.5677 41.9141 91.388 41.9844 91.1797 41.9844C90.9609 41.9844 90.7786 41.9141 90.6328 41.7734C90.487 41.6276 90.4141 41.4089 90.4141 41.1172ZM100.43 52V46.4609C100.43 45.763 100.271 45.2422 99.9531 44.8984C99.6354 44.5547 99.138 44.3828 98.4609 44.3828C97.5651 44.3828 96.9089 44.625 96.4922 45.1094C96.0755 45.5938 95.8672 46.3932 95.8672 47.5078V52H94.5703V43.4375H95.625L95.8359 44.6094H95.8984C96.1641 44.1875 96.5365 43.862 97.0156 43.6328C97.4948 43.3984 98.0286 43.2812 98.6172 43.2812C99.6484 43.2812 100.424 43.5312 100.945 44.0312C101.466 44.526 101.727 45.3203 101.727 46.4141V52H100.43ZM111.406 43.4375V44.2578L109.82 44.4453C109.966 44.6276 110.096 44.8672 110.211 45.1641C110.326 45.4557 110.383 45.7865 110.383 46.1562C110.383 46.9948 110.096 47.6641 109.523 48.1641C108.951 48.6641 108.164 48.9141 107.164 48.9141C106.909 48.9141 106.669 48.8932 106.445 48.8516C105.893 49.1432 105.617 49.5104 105.617 49.9531C105.617 50.1875 105.714 50.362 105.906 50.4766C106.099 50.5859 106.43 50.6406 106.898 50.6406H108.414C109.341 50.6406 110.052 50.8359 110.547 51.2266C111.047 51.6172 111.297 52.1849 111.297 52.9297C111.297 53.8776 110.917 54.599 110.156 55.0938C109.396 55.5938 108.286 55.8438 106.828 55.8438C105.708 55.8438 104.844 55.6354 104.234 55.2188C103.63 54.8021 103.328 54.2135 103.328 53.4531C103.328 52.9323 103.495 52.4818 103.828 52.1016C104.161 51.7214 104.63 51.4635 105.234 51.3281C105.016 51.2292 104.831 51.0755 104.68 50.8672C104.534 50.6589 104.461 50.4167 104.461 50.1406C104.461 49.8281 104.544 49.5547 104.711 49.3203C104.878 49.0859 105.141 48.8594 105.5 48.6406C105.057 48.4583 104.695 48.1484 104.414 47.7109C104.138 47.2734 104 46.7734 104 46.2109C104 45.2734 104.281 44.5521 104.844 44.0469C105.406 43.5365 106.203 43.2812 107.234 43.2812C107.682 43.2812 108.086 43.3333 108.445 43.4375H111.406ZM104.578 53.4375C104.578 53.901 104.773 54.2526 105.164 54.4922C105.555 54.7318 106.115 54.8516 106.844 54.8516C107.932 54.8516 108.737 54.6875 109.258 54.3594C109.784 54.0365 110.047 53.5964 110.047 53.0391C110.047 52.5755 109.904 52.2526 109.617 52.0703C109.331 51.8932 108.792 51.8047 108 51.8047H106.445C105.857 51.8047 105.398 51.9453 105.07 52.2266C104.742 52.5078 104.578 52.9115 104.578 53.4375ZM105.281 46.1797C105.281 46.7786 105.451 47.2318 105.789 47.5391C106.128 47.8464 106.599 48 107.203 48C108.469 48 109.102 47.3854 109.102 46.1562C109.102 44.8698 108.461 44.2266 107.18 44.2266C106.57 44.2266 106.102 44.3906 105.773 44.7188C105.445 45.0469 105.281 45.5339 105.281 46.1797Z" fill="white"/>
</svg>
