<svg width="112" height="57" xmlns="http://www.w3.org/2000/svg" fill="none">

 <g>
  <title>Layer 1</title>
  <path id="svg_1" fill="white" d="m54.0037,6.79947l-12.3559,0c-0.3617,0.00985 -0.6494,0.30672 -0.6478,0.66857l0,8.16146c0.0017,0.3484 0.2855,0.6295 0.6339,0.6278c0.0046,0 0.0092,-0.0001 0.0139,-0.0002l2.915,0l0,0.6477l-0.5794,0c-0.3577,0 -0.6478,0.29 -0.6478,0.6478c0,0.3578 0.2901,0.6478 0.6478,0.6478l7.6846,0c0.3578,0 0.6478,-0.29 0.6478,-0.6478c0,-0.3578 -0.29,-0.6478 -0.6478,-0.6478l-0.5626,0l0,-0.6477l2.8983,0c0.3577,0 0.6645,-0.2699 0.6645,-0.6276l0,-8.16146c-0.0061,-0.36509 -0.2994,-0.66015 -0.6645,-0.66857zm-4.1939,10.10533l-3.9514,0l0,-0.6477l3.9514,0l0,0.6477zm3.5628,-1.9433l-11.077,0l0,-6.86647l11.077,0l0,6.86647z"/>
  <path id="svg_2" fill="white" d="m70.9273,6.79947l-12.3559,0c-0.365,0.00842 -0.6583,0.30348 -0.6644,0.66857l0,8.16146c0,0.3577 0.3067,0.6276 0.6644,0.6276l2.8984,0l0,0.6477l-0.5627,0c-0.3578,0 -0.6478,0.29 -0.6478,0.6478c0,0.3578 0.29,0.6478 0.6478,0.6478l7.6846,0c0.3578,0 0.6478,-0.29 0.6478,-0.6478c0,-0.3578 -0.29,-0.6478 -0.6478,-0.6478l-0.5794,0l0,-0.6477l2.915,0c0.3484,0.0093 0.6382,-0.2655 0.6476,-0.6137c0.0002,-0.0046 0.0002,-0.0092 0.0002,-0.0139l0,-8.16146c0.0016,-0.36185 -0.286,-0.65872 -0.6478,-0.66857zm-4.2105,10.10533l-3.9515,0l0,-0.6477l3.9515,0l0,0.6477zm3.5628,-1.9433l-11.0771,0l0,-6.86647l11.0771,0l0,6.86647z"/>
  <path id="svg_3" fill="white" d="m62.3618,2.0015c-0.0001,-0.00007 -0.0002,-0.0002 -0.0003,-0.00026l-1.8115,-1.81152c-0.253,-0.25296 -0.6631,-0.25296 -0.9161,0c-0.25,0.24583 -0.2534,0.64771 -0.0076,0.89776c0.0026,0.00252 0.0051,0.00505 0.0076,0.00758l0.7273,0.71651l-18.7134,0c-0.3578,0 -0.6478,0.29001 -0.6478,0.64778c0,0.35777 0.29,0.64778 0.6478,0.64778l18.6702,0l-0.684,0.69481c-0.2545,0.25561 -0.2538,0.66922 0.0019,0.9238c0.1212,0.12075 0.285,0.18915 0.4562,0.19038c0.1716,0.00072 0.3366,-0.06711 0.458,-0.18844l1.8114,-1.81074c0.2529,-0.2527 0.253,-0.66261 0.0003,-0.91544z"/>
  <path id="svg_4" fill="white" d="m70.9275,21.8927l-18.6703,0l0.684,-0.6948c0.253,-0.2551 0.253,-0.6664 0,-0.9214c-0.2522,-0.2538 -0.6623,-0.2549 -0.9161,-0.0027l-1.8113,1.81c-0.2528,0.2525 -0.253,0.6622 -0.0005,0.915c0.0001,0.0001 0.0003,0.0003 0.0005,0.0004l1.8115,1.8111c0.2529,0.2529 0.6631,0.2529 0.9161,0c0.2499,-0.2459 0.2534,-0.6477 0.0075,-0.8978c-0.0025,-0.0025 -0.005,-0.005 -0.0075,-0.0076l-0.7274,-0.7166l18.7135,0c0.3577,0 0.6477,-0.29 0.6477,-0.6478c0,-0.3577 -0.29,-0.6478 -0.6477,-0.6478z"/>
  <path id="svg_5" fill="white" d="m8.22656,48.9609c0,1.0052 -0.36458,1.7891 -1.09375,2.3516c-0.72916,0.5625 -1.71875,0.8437 -2.96875,0.8437c-1.35416,0 -2.39583,-0.1744 -3.125,-0.5234l0,-1.2812c0.46875,0.1979 0.97917,0.3541 1.53125,0.4687c0.55209,0.1146 1.09896,0.1719 1.64063,0.1719c0.88541,0 1.55208,-0.1667 2,-0.5c0.44791,-0.3386 0.67187,-0.8073 0.67187,-1.4063c0,-0.3958 -0.08073,-0.7187 -0.24219,-0.9687c-0.15624,-0.2552 -0.42187,-0.4896 -0.79687,-0.7031c-0.36979,-0.2136 -0.9349,-0.4558 -1.69531,-0.7266c-1.0625,-0.3802 -1.82292,-0.8307 -2.28125,-1.3516c-0.45313,-0.5208 -0.67969,-1.2005 -0.67969,-2.039c0,-0.8802 0.33073,-1.5808 0.99219,-2.1016c0.66146,-0.5208 1.53646,-0.7812 2.625,-0.7812c1.13541,0 2.17969,0.2083 3.13281,0.625l-0.41406,1.1562c-0.94271,-0.3958 -1.85938,-0.5937 -2.75,-0.5937c-0.70313,0 -1.25261,0.151 -1.64844,0.4531c-0.39583,0.3021 -0.59375,0.7213 -0.59375,1.2578c0,0.3958 0.07292,0.7214 0.21875,0.9766c0.14583,0.25 0.39062,0.4817 0.73438,0.6953c0.34895,0.2083 0.8802,0.4401 1.59374,0.6953c1.19792,0.4271 2.02084,0.8854 2.46876,1.375c0.45312,0.4896 0.67968,1.125 0.67968,1.9062zm5.56254,3.1953c-1.2396,0 -2.2006,-0.3802 -2.8829,-1.1406c-0.677,-0.7656 -1.01558,-1.8463 -1.01558,-3.2422c0,-1.4323 0.34378,-2.539 1.03128,-3.3203c0.6927,-0.7812 1.6771,-1.1719 2.9531,-1.1719c0.4115,0 0.8229,0.0443 1.2344,0.1329c0.4114,0.0885 0.7344,0.1927 0.9687,0.3125l-0.3984,1.1015c-0.2865,-0.1146 -0.599,-0.2083 -0.9375,-0.2812c-0.3386,-0.0781 -0.638,-0.1172 -0.8984,-0.1172c-1.7396,0 -2.6094,1.1094 -2.6094,3.3281c0,1.0521 0.2109,1.8594 0.6328,2.4219c0.4271,0.5625 1.0573,0.8437 1.8906,0.8437c0.7136,0 1.4453,-0.1536 2.1953,-0.4609l0,1.1484c-0.5729,0.2969 -1.2942,0.4453 -2.164,0.4453zm8.1093,-8.875c0.3802,0 0.7214,0.0313 1.0235,0.0938l-0.1797,1.2031c-0.3542,-0.0781 -0.6667,-0.1172 -0.9375,-0.1172c-0.6927,0 -1.2865,0.2813 -1.7813,0.8438c-0.4895,0.5625 -0.7343,1.263 -0.7343,2.1015l0,4.5938l-1.2969,0l0,-8.5625l1.0703,0l0.1484,1.5859l0.0625,0c0.3177,-0.5573 0.7006,-0.9869 1.1485,-1.289c0.4479,-0.3021 0.9401,-0.4532 1.4765,-0.4532zm6.2422,8.875c-1.2656,0 -2.2656,-0.3854 -3,-1.1562c-0.7291,-0.7708 -1.0937,-1.8411 -1.0937,-3.2109c0,-1.3802 0.3385,-2.4766 1.0156,-3.2891c0.6823,-0.8125 1.5964,-1.2188 2.7422,-1.2188c1.0729,0 1.9219,0.3542 2.5469,1.0626c0.625,0.7031 0.9375,1.6328 0.9375,2.789l0,0.8203l-5.8985,0c0.0261,1.0052 0.2787,1.7683 0.7578,2.2891c0.4844,0.5208 1.1641,0.7812 2.0391,0.7812c0.9219,0 1.8333,-0.1927 2.7344,-0.5781l0,1.1563c-0.4584,0.1979 -0.8933,0.3385 -1.3047,0.4218c-0.4063,0.0886 -0.8984,0.1328 -1.4766,0.1328zm-0.3515,-7.789c-0.6875,0 -1.237,0.2239 -1.6485,0.6719c-0.4062,0.4479 -0.6458,1.0677 -0.7187,1.8593l4.4765,0c0,-0.8177 -0.1823,-1.4427 -0.5468,-1.875c-0.3646,-0.4375 -0.8855,-0.6562 -1.5625,-0.6562zm9.3359,7.789c-1.2656,0 -2.2656,-0.3854 -3,-1.1562c-0.7292,-0.7708 -1.0938,-1.8411 -1.0938,-3.2109c0,-1.3802 0.3386,-2.4766 1.0157,-3.2891c0.6823,-0.8125 1.5963,-1.2188 2.7422,-1.2188c1.0729,0 1.9218,0.3542 2.5468,1.0626c0.625,0.7031 0.9375,1.6328 0.9375,2.789l0,0.8203l-5.8984,0c0.026,1.0052 0.2786,1.7683 0.7578,2.2891c0.4844,0.5208 1.1641,0.7812 2.0391,0.7812c0.9219,0 1.8333,-0.1927 2.7343,-0.5781l0,1.1563c-0.4583,0.1979 -0.8932,0.3385 -1.3046,0.4218c-0.4063,0.0886 -0.8985,0.1328 -1.4766,0.1328zm-0.3516,-7.789c-0.6875,0 -1.2369,0.2239 -1.6484,0.6719c-0.4062,0.4479 -0.6458,1.0677 -0.7188,1.8593l4.4766,0c0,-0.8177 -0.1823,-1.4427 -0.5469,-1.875c-0.3645,-0.4375 -0.8854,-0.6562 -1.5625,-0.6562zm11.5782,7.6328l0,-5.5391c0,-0.6979 -0.1589,-1.2187 -0.4766,-1.5625c-0.3177,-0.3437 -0.8151,-0.5156 -1.4922,-0.5156c-0.8958,0 -1.5521,0.2422 -1.9687,0.7266c-0.4167,0.4844 -0.625,1.2838 -0.625,2.3984l0,4.4922l-1.2969,0l0,-8.5625l1.0547,0l0.2109,1.1719l0.0625,0c0.2656,-0.4219 0.638,-0.7474 1.1172,-0.9766c0.4792,-0.2344 1.013,-0.3516 1.6016,-0.3516c1.0312,0 1.8073,0.25 2.3281,0.75c0.5208,0.4948 0.7812,1.2891 0.7812,2.3829l0,5.5859l-1.2968,0zm14.7656,-3.0391c0,1.0052 -0.3646,1.7891 -1.0938,2.3516c-0.7291,0.5625 -1.7187,0.8437 -2.9687,0.8437c-1.3542,0 -2.3958,-0.1744 -3.125,-0.5234l0,-1.2812c0.4687,0.1979 0.9792,0.3541 1.5312,0.4687c0.5521,0.1146 1.099,0.1719 1.6407,0.1719c0.8854,0 1.552,-0.1667 2,-0.5c0.4479,-0.3386 0.6718,-0.8073 0.6718,-1.4063c0,-0.3958 -0.0807,-0.7187 -0.2422,-0.9687c-0.1562,-0.2552 -0.4218,-0.4896 -0.7968,-0.7031c-0.3698,-0.2136 -0.9349,-0.4558 -1.6953,-0.7266c-1.0625,-0.3802 -1.823,-0.8307 -2.2813,-1.3516c-0.4531,-0.5208 -0.6797,-1.2005 -0.6797,-2.039c0,-0.8802 0.3308,-1.5808 0.9922,-2.1016c0.6615,-0.5208 1.5365,-0.7812 2.625,-0.7812c1.1354,0 2.1797,0.2083 3.1328,0.625l-0.414,1.1562c-0.9427,-0.3958 -1.8594,-0.5937 -2.75,-0.5937c-0.7032,0 -1.2526,0.151 -1.6485,0.4531c-0.3958,0.3021 -0.5937,0.7213 -0.5937,1.2578c0,0.3958 0.0729,0.7214 0.2187,0.9766c0.1459,0.25 0.3906,0.4817 0.7344,0.6953c0.349,0.2083 0.8802,0.4401 1.5938,0.6953c1.1979,0.4271 2.0208,0.8854 2.4687,1.375c0.4531,0.4896 0.6797,1.125 0.6797,1.9062zm8,3.0391l0,-5.5391c0,-0.6979 -0.1589,-1.2187 -0.4766,-1.5625c-0.3177,-0.3437 -0.8151,-0.5156 -1.4922,-0.5156c-0.901,0 -1.5599,0.2448 -1.9765,0.7344c-0.4115,0.4896 -0.6172,1.2917 -0.6172,2.4062l0,4.4766l-1.2969,0l0,-12.1562l1.2969,0l0,3.6796c0,0.4427 -0.0208,0.8099 -0.0625,1.1016l0.0781,0c0.2552,-0.4115 0.6172,-0.7344 1.0859,-0.9688c0.474,-0.2395 1.0131,-0.3593 1.6172,-0.3593c1.0469,0 1.8308,0.25 2.3516,0.75c0.526,0.4948 0.7891,1.2838 0.7891,2.3672l0,5.5859l-1.2969,0zm9.2344,0l-0.2578,-1.2188l-0.0626,0c-0.427,0.5365 -0.8541,0.9011 -1.2812,1.0938c-0.4219,0.1875 -0.9505,0.2812 -1.5859,0.2812c-0.849,0 -1.5157,-0.2187 -2,-0.6562c-0.4792,-0.4375 -0.7188,-1.0599 -0.7188,-1.8672c0,-1.7292 1.3828,-2.6354 4.1485,-2.7187l1.4531,-0.0469l0,-0.5313c0,-0.6718 -0.1459,-1.1666 -0.4375,-1.4843c-0.2865,-0.323 -0.7474,-0.4844 -1.3828,-0.4844c-0.7136,0 -1.5209,0.2187 -2.4219,0.6562l-0.3985,-0.9922c0.4219,-0.2291 0.8829,-0.4088 1.3829,-0.539c0.5052,-0.1302 1.0104,-0.1953 1.5156,-0.1953c1.0208,0 1.776,0.2265 2.2656,0.6797c0.4948,0.4531 0.7422,1.1796 0.7422,2.1796l0,5.8438l-0.9609,0zm-2.9297,-0.9141c0.8073,0 1.4401,-0.2213 1.8984,-0.664c0.4636,-0.4427 0.6953,-1.0625 0.6953,-1.8594l0,-0.7734l-1.2968,0.0547c-1.0313,0.0364 -1.7761,0.1979 -2.2344,0.4843c-0.4532,0.2813 -0.6797,0.7214 -0.6797,1.3203c0,0.4688 0.1406,0.8256 0.4219,1.0704c0.2864,0.2447 0.6849,0.3671 1.1953,0.3671zm10.4765,-7.8047c0.3802,0 0.7214,0.0313 1.0235,0.0938l-0.1797,1.2031c-0.3542,-0.0781 -0.6667,-0.1172 -0.9375,-0.1172c-0.6927,0 -1.2865,0.2813 -1.7813,0.8438c-0.4895,0.5625 -0.7343,1.263 -0.7343,2.1015l0,4.5938l-1.2969,0l0,-8.5625l1.0703,0l0.1484,1.5859l0.0625,0c0.3177,-0.5573 0.7006,-0.9869 1.1485,-1.289c0.4479,-0.3021 0.9401,-0.4532 1.4765,-0.4532zm3.9219,8.7188l-1.2969,0l0,-8.5625l1.2969,0l0,8.5625zm-1.4062,-10.8828c0,-0.2969 0.0729,-0.513 0.2187,-0.6484c0.1458,-0.1407 0.3281,-0.211 0.5469,-0.211c0.2083,0 0.388,0.0703 0.5391,0.211c0.151,0.1406 0.2265,0.3567 0.2265,0.6484c0,0.2917 -0.0755,0.5104 -0.2265,0.6562c-0.1511,0.1407 -0.3308,0.211 -0.5391,0.211c-0.2188,0 -0.4011,-0.0703 -0.5469,-0.211c-0.1458,-0.1458 -0.2187,-0.3645 -0.2187,-0.6562zm10.0159,10.8828l0,-5.5391c0,-0.6979 -0.159,-1.2187 -0.4769,-1.5625c-0.3177,-0.3437 -0.8151,-0.5156 -1.4922,-0.5156c-0.8958,0 -1.552,0.2422 -1.9687,0.7266c-0.4167,0.4844 -0.625,1.2838 -0.625,2.3984l0,4.4922l-1.2969,0l0,-8.5625l1.0547,0l0.2109,1.1719l0.0625,0c0.2657,-0.4219 0.6381,-0.7474 1.1172,-0.9766c0.4792,-0.2344 1.013,-0.3516 1.6016,-0.3516c1.0312,0 1.8068,0.25 2.3278,0.75c0.521,0.4948 0.782,1.2891 0.782,2.3829l0,5.5859l-1.297,0zm10.976,-8.5625l0,0.8203l-1.586,0.1875c0.146,0.1823 0.276,0.4219 0.391,0.7188c0.115,0.2916 0.172,0.6224 0.172,0.9921c0,0.8386 -0.287,1.5079 -0.86,2.0079c-0.572,0.5 -1.359,0.75 -2.359,0.75c-0.255,0 -0.495,-0.0209 -0.719,-0.0625c-0.552,0.2916 -0.828,0.6588 -0.828,1.1015c0,0.2344 0.097,0.4089 0.289,0.5235c0.193,0.1093 0.524,0.164 0.992,0.164l1.516,0c0.927,0 1.638,0.1953 2.133,0.586c0.5,0.3906 0.75,0.9583 0.75,1.7031c0,0.9479 -0.38,1.6693 -1.141,2.1641c-0.76,0.5 -1.87,0.75 -3.328,0.75c-1.12,0 -1.984,-0.2084 -2.594,-0.625c-0.604,-0.4167 -0.906,-1.0053 -0.906,-1.7657c0,-0.5208 0.167,-0.9713 0.5,-1.3515c0.333,-0.3802 0.802,-0.6381 1.406,-0.7735c-0.218,-0.0989 -0.403,-0.2526 -0.554,-0.4609c-0.146,-0.2083 -0.219,-0.4505 -0.219,-0.7266c0,-0.3125 0.083,-0.5859 0.25,-0.8203c0.167,-0.2344 0.43,-0.4609 0.789,-0.6797c-0.443,-0.1823 -0.805,-0.4922 -1.086,-0.9297c-0.276,-0.4375 -0.414,-0.9375 -0.414,-1.5c0,-0.9375 0.281,-1.6588 0.844,-2.164c0.562,-0.5104 1.359,-0.7657 2.39,-0.7657c0.448,0 0.852,0.0521 1.211,0.1563l2.961,0zm-6.828,10c0,0.4635 0.195,0.8151 0.586,1.0547c0.391,0.2396 0.951,0.3594 1.68,0.3594c1.088,0 1.893,-0.1641 2.414,-0.4922c0.526,-0.3229 0.789,-0.763 0.789,-1.3203c0,-0.4636 -0.143,-0.7865 -0.43,-0.9688c-0.286,-0.1771 -0.825,-0.2656 -1.617,-0.2656l-1.555,0c-0.588,0 -1.047,0.1406 -1.375,0.4219c-0.328,0.2812 -0.492,0.6849 -0.492,1.2109zm0.703,-7.2578c0,0.5989 0.17,1.0521 0.508,1.3594c0.339,0.3073 0.81,0.4609 1.414,0.4609c1.266,0 1.899,-0.6146 1.899,-1.8438c0,-1.2864 -0.641,-1.9296 -1.922,-1.9296c-0.61,0 -1.078,0.164 -1.407,0.4922c-0.328,0.3281 -0.492,0.8151 -0.492,1.4609z"/>
  <ellipse stroke="#ffffff" fill="#ff0000" cx="40.94516" cy="6.33174" id="svg_6" rx="4.32465" ry="4.32465"/>
 </g>
</svg>