<svg width="226" height="76" viewBox="0 0 226 76" fill="none" xmlns="http://www.w3.org/2000/svg">
<g filter="url(#filter0_bd_1_53)">
<rect x="13" y="9" width="200" height="50" rx="25" fill="#FE018F" fill-opacity="0.2"/>
<rect x="13.5" y="9.5" width="199" height="49" rx="24.5" stroke="#B08D96"/>
</g>
<path d="M83.543 37.4316C83.543 38.5918 83.124 39.5059 82.2861 40.1738C81.4541 40.8418 80.2939 41.1758 78.8057 41.1758C77.4346 41.1758 76.2217 40.918 75.167 40.4023V37.8711C76.0342 38.2578 76.7666 38.5303 77.3643 38.6885C77.9678 38.8467 78.5186 38.9258 79.0166 38.9258C79.6143 38.9258 80.0713 38.8115 80.3877 38.583C80.71 38.3545 80.8711 38.0146 80.8711 37.5635C80.8711 37.3115 80.8008 37.0889 80.6602 36.8955C80.5195 36.6963 80.3115 36.5059 80.0361 36.3242C79.7666 36.1426 79.2129 35.8525 78.375 35.4541C77.5898 35.085 77.001 34.7305 76.6084 34.3906C76.2158 34.0508 75.9023 33.6553 75.668 33.2041C75.4336 32.7529 75.3164 32.2256 75.3164 31.6221C75.3164 30.4854 75.7002 29.5918 76.4678 28.9414C77.2412 28.291 78.3076 27.9658 79.667 27.9658C80.335 27.9658 80.9707 28.0449 81.5742 28.2031C82.1836 28.3613 82.8193 28.584 83.4814 28.8711L82.6025 30.9893C81.917 30.708 81.3486 30.5117 80.8975 30.4004C80.4521 30.2891 80.0127 30.2334 79.5791 30.2334C79.0635 30.2334 78.668 30.3535 78.3926 30.5938C78.1172 30.834 77.9795 31.1475 77.9795 31.5342C77.9795 31.7744 78.0352 31.9854 78.1465 32.167C78.2578 32.3428 78.4336 32.5156 78.6738 32.6855C78.9199 32.8496 79.4971 33.1484 80.4053 33.582C81.6064 34.1562 82.4297 34.7334 82.875 35.3135C83.3203 35.8877 83.543 36.5938 83.543 37.4316ZM85.8721 41V28.1504H88.5967V41H85.8721ZM96.709 33.7842H101.807V40.4463C100.98 40.7158 100.201 40.9033 99.4688 41.0088C98.7422 41.1201 97.998 41.1758 97.2363 41.1758C95.2969 41.1758 93.8145 40.6074 92.7891 39.4707C91.7695 38.3281 91.2598 36.6904 91.2598 34.5576C91.2598 32.4834 91.8516 30.8662 93.0352 29.7061C94.2246 28.5459 95.8711 27.9658 97.9746 27.9658C99.293 27.9658 100.564 28.2295 101.789 28.7568L100.884 30.9365C99.9463 30.4678 98.9707 30.2334 97.957 30.2334C96.7793 30.2334 95.8359 30.6289 95.127 31.4199C94.418 32.2109 94.0635 33.2744 94.0635 34.6104C94.0635 36.0049 94.3477 37.0713 94.916 37.8096C95.4902 38.542 96.3223 38.9082 97.4121 38.9082C97.9805 38.9082 98.5576 38.8496 99.1436 38.7324V36.0518H96.709V33.7842ZM116.273 41H112.811L107.221 31.2793H107.142C107.253 32.9961 107.309 34.2207 107.309 34.9531V41H104.874V28.1504H108.311L113.892 37.7744H113.953C113.865 36.1045 113.821 34.9238 113.821 34.2324V28.1504H116.273V41ZM135.855 34.5576C135.855 36.6846 135.328 38.3193 134.273 39.4619C133.219 40.6045 131.707 41.1758 129.738 41.1758C127.77 41.1758 126.258 40.6045 125.203 39.4619C124.148 38.3193 123.621 36.6787 123.621 34.54C123.621 32.4014 124.148 30.7695 125.203 29.6445C126.264 28.5137 127.781 27.9482 129.756 27.9482C131.73 27.9482 133.239 28.5166 134.282 29.6533C135.331 30.79 135.855 32.4248 135.855 34.5576ZM126.478 34.5576C126.478 35.9932 126.75 37.0742 127.295 37.8008C127.84 38.5273 128.654 38.8906 129.738 38.8906C131.912 38.8906 132.999 37.4463 132.999 34.5576C132.999 31.6631 131.918 30.2158 129.756 30.2158C128.672 30.2158 127.854 30.582 127.304 31.3145C126.753 32.041 126.478 33.1221 126.478 34.5576ZM141.199 41H138.519V28.1504H145.884V30.3828H141.199V33.6963H145.559V35.9199H141.199V41ZM151.078 41H148.397V28.1504H155.763V30.3828H151.078V33.6963H155.438V35.9199H151.078V41Z" fill="white"/>
<defs>
<filter id="filter0_bd_1_53" x="-2" y="-6" width="230" height="82" filterUnits="userSpaceOnUse" color-interpolation-filters="sRGB">
<feFlood flood-opacity="0" result="BackgroundImageFix"/>
<feGaussianBlur in="BackgroundImage" stdDeviation="7.5"/>
<feComposite in2="SourceAlpha" operator="in" result="effect1_backgroundBlur_1_53"/>
<feColorMatrix in="SourceAlpha" type="matrix" values="0 0 0 0 0 0 0 0 0 0 0 0 0 0 0 0 0 0 127 0" result="hardAlpha"/>
<feOffset dy="4"/>
<feGaussianBlur stdDeviation="6.5"/>
<feColorMatrix type="matrix" values="0 0 0 0 0 0 0 0 0 0 0 0 0 0 0 0 0 0 0.12 0"/>
<feBlend mode="normal" in2="effect1_backgroundBlur_1_53" result="effect2_dropShadow_1_53"/>
<feBlend mode="normal" in="SourceGraphic" in2="effect2_dropShadow_1_53" result="shape"/>
</filter>
</defs>
</svg>
