<svg width="61" height="60" viewBox="0 0 61 60" fill="none" xmlns="http://www.w3.org/2000/svg">
<circle cx="30.5" cy="30" r="29.5" fill="#FE018F" stroke="#DE007D"/>
<g clip-path="url(#clip0_28_150)">
<path d="M36.8281 27.1185V25.323C36.8281 25.1515 36.7654 24.9858 36.6518 24.8573C36.5382 24.7288 36.3815 24.6462 36.2112 24.6252L34.7253 24.4417L34.2601 23.3184L35.1806 22.1378C35.2861 22.0026 35.3385 21.8334 35.328 21.6622C35.3174 21.491 35.2446 21.3295 35.1233 21.2082L32.3543 18.4395C32.233 18.3182 32.0715 18.2454 31.9003 18.2348C31.7291 18.2243 31.5599 18.2767 31.4247 18.3821L30.2441 19.3024L29.1208 18.8372L28.9373 17.3513C28.9163 17.181 28.8337 17.0243 28.7052 16.9107C28.5767 16.7971 28.411 16.7344 28.2395 16.7344H24.323C24.1515 16.7344 23.9858 16.7971 23.8573 16.9107C23.7288 17.0243 23.6462 17.181 23.6252 17.3513L23.4417 18.8372L22.3184 19.3024L21.1378 18.3819C21.0026 18.2764 20.8334 18.224 20.6622 18.2345C20.491 18.2451 20.3295 18.3179 20.2082 18.4392L17.4395 21.2082C17.3182 21.3295 17.2454 21.491 17.2348 21.6622C17.2243 21.8334 17.2767 22.0026 17.3821 22.1378L18.3027 23.3184L17.8375 24.4417L16.3516 24.6252C16.1813 24.6462 16.0245 24.7287 15.9108 24.8572C15.7971 24.9858 15.7344 25.1514 15.7344 25.323V29.2395C15.7344 29.411 15.7971 29.5767 15.9107 29.7052C16.0243 29.8337 16.181 29.9163 16.3513 29.9373L17.8372 30.1208L18.3024 31.2441L17.3819 32.4247C17.2764 32.5599 17.224 32.7291 17.2345 32.9003C17.2451 33.0715 17.3179 33.233 17.4392 33.3543L20.2082 36.1233C20.3295 36.2446 20.491 36.3174 20.6622 36.328C20.8334 36.3385 21.0026 36.2861 21.1378 36.1806L22.3184 35.2601L23.4417 35.7253L23.6252 37.2112C23.6462 37.3815 23.7288 37.5382 23.8573 37.6518C23.9858 37.7654 24.1515 37.8281 24.323 37.8281H26.1185C26.6986 42.576 30.7543 46.2656 35.6562 46.2656C40.9549 46.2656 45.2656 41.9549 45.2656 36.6562C45.2656 31.7543 41.576 27.6983 36.8281 27.1185ZM24.7871 35.1462C24.7718 35.0228 24.7241 34.9056 24.6488 34.8066C24.5735 34.7076 24.4732 34.6304 24.3583 34.5828L22.478 33.8041C22.3632 33.7565 22.2377 33.7402 22.1145 33.757C21.9913 33.7737 21.8747 33.8228 21.7766 33.8992L20.7629 34.6896L18.8727 32.7993L19.663 31.7856C19.7395 31.6876 19.7886 31.571 19.8053 31.4478C19.822 31.3246 19.8058 31.1991 19.7582 31.0842L18.9795 29.2039C18.9319 29.089 18.8546 28.9888 18.7556 28.9135C18.6567 28.8382 18.5395 28.7904 18.416 28.7752L17.1406 28.6178V25.9447L18.4163 25.7871C18.5397 25.7718 18.6569 25.7241 18.7559 25.6488C18.8549 25.5735 18.9321 25.4732 18.9797 25.3583L19.7584 23.478C19.806 23.3632 19.8223 23.2377 19.8055 23.1145C19.7888 22.9913 19.7397 22.8747 19.6633 22.7766L18.8729 21.7629L20.7632 19.8727L21.7769 20.663C21.8749 20.7395 21.9915 20.7886 22.1147 20.8053C22.2379 20.822 22.3634 20.8058 22.4783 20.7582L24.3586 19.9795C24.4735 19.9319 24.5737 19.8546 24.649 19.7556C24.7243 19.6567 24.7721 19.5395 24.7873 19.416L24.9447 18.1406H27.6178L27.7754 19.4163C27.7907 19.5397 27.8384 19.6569 27.9137 19.7559C27.989 19.8549 28.0893 19.9321 28.2042 19.9797L30.0845 20.7584C30.1993 20.806 30.3248 20.8223 30.448 20.8055C30.5712 20.7888 30.6878 20.7397 30.7859 20.6633L31.7995 19.8729L33.6898 21.7632L32.8995 22.7769C32.823 22.8749 32.7739 22.9915 32.7572 23.1147C32.7405 23.2379 32.7567 23.3634 32.8043 23.4783L33.583 25.3586C33.6306 25.4735 33.7079 25.5737 33.8069 25.649C33.9058 25.7243 34.023 25.7721 34.1465 25.7873L35.4219 25.9447V27.0499C34.092 27.0808 32.7832 27.3894 31.5796 27.9558C31.6397 27.4889 31.6381 27.0161 31.5746 26.5496C31.4354 25.532 31.0062 24.576 30.3384 23.7958C29.6705 23.0156 28.7922 22.4441 27.8082 22.1496C26.8243 21.8552 25.7764 21.8501 24.7897 22.1351C23.8031 22.4202 22.9193 22.9832 22.2439 23.757C21.5686 24.5307 21.1303 25.4826 20.9813 26.4987C20.8324 27.5149 20.9791 28.5525 21.4039 29.4875C21.8287 30.4226 22.5138 31.2156 23.3772 31.7718C24.2405 32.328 25.2458 32.6239 26.2728 32.6242C26.5011 32.6241 26.7291 32.6095 26.9555 32.5806C26.3893 33.7839 26.0808 35.0923 26.0499 36.4219H24.9447L24.7871 35.1462ZM28.0394 30.8049C27.2995 31.1701 26.4641 31.2951 25.6498 31.1625C24.8355 31.03 24.0829 30.6464 23.4972 30.0653C23.1253 29.7011 22.8293 29.2668 22.6264 28.7874C22.4234 28.3081 22.3175 27.7933 22.3148 27.2728C22.3121 26.7522 22.4126 26.2363 22.6106 25.7549C22.8085 25.2735 23.1 24.8361 23.468 24.468C23.8361 24.1 24.2735 23.8085 24.7549 23.6106C25.2363 23.4126 25.7522 23.3121 26.2728 23.3148C26.7933 23.3175 27.3081 23.4234 27.7874 23.6264C28.2668 23.8293 28.7011 24.1253 29.0653 24.4972C29.6463 25.083 30.0299 25.8355 30.1624 26.6498C30.295 27.4641 30.17 28.2995 29.8049 29.0394C29.1427 29.5493 28.5493 30.1427 28.0394 30.8049ZM35.6562 44.8594C31.1328 44.8594 27.4531 41.1797 27.4531 36.6562C27.4531 32.1328 31.1328 28.4531 35.6562 28.4531C40.1797 28.4531 43.8594 32.1328 43.8594 36.6562C43.8594 41.1797 40.1797 44.8594 35.6562 44.8594Z" fill="white"/>
<path d="M41.2812 35.0156H40.1094V34.3125C40.1094 33.1315 39.6402 31.9988 38.8051 31.1637C37.97 30.3285 36.8373 29.8594 35.6562 29.8594C34.4752 29.8594 33.3425 30.3285 32.5074 31.1637C31.6723 31.9988 31.2031 33.1315 31.2031 34.3125V35.0156H30.0312C29.7206 35.016 29.4227 35.1396 29.203 35.3593C28.9833 35.5789 28.8597 35.8768 28.8594 36.1875V38.6484C28.8597 38.9281 28.9709 39.1961 29.1686 39.3939C29.3664 39.5916 29.6344 39.7028 29.9141 39.7031H31.2031V39.9375C31.2037 40.4968 31.4262 41.0329 31.8216 41.4284C32.2171 41.8238 32.7532 42.0463 33.3125 42.0469H36.5938C36.7802 42.0469 36.9591 41.9728 37.0909 41.8409C37.2228 41.7091 37.2969 41.5302 37.2969 41.3438C37.2969 41.1573 37.2228 40.9784 37.0909 40.8466C36.9591 40.7147 36.7802 40.6406 36.5938 40.6406H33.3125C33.1261 40.6404 32.9474 40.5663 32.8155 40.4345C32.6837 40.3026 32.6096 40.1239 32.6094 39.9375V34.3125C32.6094 33.5044 32.9304 32.7294 33.5018 32.158C34.0732 31.5866 34.8482 31.2656 35.6562 31.2656C36.4643 31.2656 37.2393 31.5866 37.8107 32.158C38.3821 32.7294 38.7031 33.5044 38.7031 34.3125V39C38.7031 39.1865 38.7772 39.3653 38.9091 39.4972C39.0409 39.629 39.2198 39.7031 39.4062 39.7031H41.3984C41.6781 39.7028 41.9461 39.5916 42.1439 39.3939C42.3416 39.1961 42.4528 38.9281 42.4531 38.6484V36.1875C42.4528 35.8768 42.3292 35.5789 42.1095 35.3593C41.8898 35.1396 41.5919 35.016 41.2812 35.0156ZM30.2656 36.4219H31.2031V38.2969H30.2656V36.4219ZM41.0469 38.2969H40.1094V36.4219H41.0469V38.2969Z" fill="white"/>
</g>
<defs>
<clipPath id="clip0_28_150">
<rect width="30" height="30" fill="white" transform="translate(15.5 16.5)"/>
</clipPath>
</defs>
</svg>
