<svg width="81" height="57" viewBox="0 0 81 57" fill="none" xmlns="http://www.w3.org/2000/svg">
<path d="M60.2625 2.22977C60.0071 2.07841 59.6912 2.0725 59.4305 2.21467L50.3276 7.18512V4.20278C50.3249 1.88272 48.4448 0.00262674 46.1248 0H25.2028C22.8827 0.00262674 21.0026 1.88272 21 4.20278V20.7972C21.0026 23.1173 22.8827 24.9974 25.2028 25H46.1248C48.4448 24.9974 50.3249 23.1173 50.3276 20.7972V17.8691L59.4309 22.8395C59.6912 22.9817 60.0074 22.9761 60.2625 22.8247C60.518 22.673 60.6743 22.3982 60.6743 22.1017V2.95246C60.6743 2.65563 60.5177 2.38114 60.2625 2.22977ZM48.6458 20.7975C48.6445 22.1897 47.5163 23.3176 46.1241 23.3192H25.2028C23.8106 23.3176 22.6828 22.1897 22.6811 20.7975V4.20278C22.6828 2.81094 23.8106 1.68276 25.2028 1.68111H46.1248C47.5166 1.68276 48.6448 2.81094 48.6464 4.20278L48.6458 20.7975ZM58.9932 20.6852L50.3276 15.9538V9.10034L58.9932 4.36925V20.6852Z" fill="white"/>
<path d="M8.45312 48.9609C8.45312 49.9661 8.08854 50.75 7.35938 51.3125C6.63021 51.875 5.64062 52.1562 4.39062 52.1562C3.03646 52.1562 1.99479 51.9818 1.26562 51.6328V50.3516C1.73438 50.5495 2.24479 50.7057 2.79688 50.8203C3.34896 50.9349 3.89583 50.9922 4.4375 50.9922C5.32292 50.9922 5.98958 50.8255 6.4375 50.4922C6.88542 50.1536 7.10938 49.6849 7.10938 49.0859C7.10938 48.6901 7.02865 48.3672 6.86719 48.1172C6.71094 47.862 6.44531 47.6276 6.07031 47.4141C5.70052 47.2005 5.13542 46.9583 4.375 46.6875C3.3125 46.3073 2.55208 45.8568 2.09375 45.3359C1.64062 44.8151 1.41406 44.1354 1.41406 43.2969C1.41406 42.4167 1.74479 41.7161 2.40625 41.1953C3.06771 40.6745 3.94271 40.4141 5.03125 40.4141C6.16667 40.4141 7.21094 40.6224 8.16406 41.0391L7.75 42.1953C6.80729 41.7995 5.89062 41.6016 5 41.6016C4.29688 41.6016 3.7474 41.7526 3.35156 42.0547C2.95573 42.3568 2.75781 42.776 2.75781 43.3125C2.75781 43.7083 2.83073 44.0339 2.97656 44.2891C3.1224 44.5391 3.36719 44.7708 3.71094 44.9844C4.0599 45.1927 4.59115 45.4245 5.30469 45.6797C6.5026 46.1068 7.32552 46.5651 7.77344 47.0547C8.22656 47.5443 8.45312 48.1797 8.45312 48.9609ZM13.3594 51.0859C13.5885 51.0859 13.8099 51.0703 14.0234 51.0391C14.237 51.0026 14.4062 50.9661 14.5312 50.9297V51.9219C14.3906 51.9896 14.1823 52.0443 13.9062 52.0859C13.6354 52.1328 13.3906 52.1562 13.1719 52.1562C11.5156 52.1562 10.6875 51.2839 10.6875 49.5391V44.4453H9.46094V43.8203L10.6875 43.2812L11.2344 41.4531H11.9844V43.4375H14.4688V44.4453H11.9844V49.4844C11.9844 50 12.1068 50.3958 12.3516 50.6719C12.5964 50.9479 12.9323 51.0859 13.3594 51.0859ZM23.6406 47.7109C23.6406 49.1068 23.2891 50.1979 22.5859 50.9844C21.8828 51.7656 20.9115 52.1562 19.6719 52.1562C18.9062 52.1562 18.2266 51.9766 17.6328 51.6172C17.0391 51.2578 16.5807 50.7422 16.2578 50.0703C15.9349 49.3984 15.7734 48.612 15.7734 47.7109C15.7734 46.3151 16.1224 45.2292 16.8203 44.4531C17.5182 43.6719 18.487 43.2812 19.7266 43.2812C20.9245 43.2812 21.875 43.6797 22.5781 44.4766C23.2865 45.2734 23.6406 46.3516 23.6406 47.7109ZM17.1172 47.7109C17.1172 48.8047 17.3359 49.638 17.7734 50.2109C18.2109 50.7839 18.8542 51.0703 19.7031 51.0703C20.5521 51.0703 21.1953 50.7865 21.6328 50.2188C22.0755 49.6458 22.2969 48.8099 22.2969 47.7109C22.2969 46.6224 22.0755 45.7969 21.6328 45.2344C21.1953 44.6667 20.5469 44.3828 19.6875 44.3828C18.8385 44.3828 18.1979 44.6615 17.7656 45.2188C17.3333 45.776 17.1172 46.6068 17.1172 47.7109ZM29.9062 52.1562C29.349 52.1562 28.8385 52.0547 28.375 51.8516C27.9167 51.6432 27.5312 51.3255 27.2188 50.8984H27.125C27.1875 51.3984 27.2188 51.8724 27.2188 52.3203V55.8438H25.9219V43.4375H26.9766L27.1562 44.6094H27.2188C27.5521 44.1406 27.9401 43.8021 28.3828 43.5938C28.8255 43.3854 29.3333 43.2812 29.9062 43.2812C31.0417 43.2812 31.9167 43.6693 32.5312 44.4453C33.151 45.2214 33.4609 46.3099 33.4609 47.7109C33.4609 49.1172 33.1458 50.2109 32.5156 50.9922C31.8906 51.7682 31.0208 52.1562 29.9062 52.1562ZM29.7188 44.3828C28.8438 44.3828 28.2109 44.625 27.8203 45.1094C27.4297 45.5938 27.2292 46.3646 27.2188 47.4219V47.7109C27.2188 48.9141 27.4193 49.776 27.8203 50.2969C28.2214 50.8125 28.8646 51.0703 29.75 51.0703C30.4896 51.0703 31.0677 50.7708 31.4844 50.1719C31.9062 49.5729 32.1172 48.7474 32.1172 47.6953C32.1172 46.6276 31.9062 45.8099 31.4844 45.2422C31.0677 44.6693 30.4792 44.3828 29.7188 44.3828ZM46.6094 40.5781H48.0391L43.9219 52H42.6094L38.5156 40.5781H39.9219L42.5469 47.9688C42.849 48.8177 43.0885 49.6432 43.2656 50.4453C43.4531 49.6016 43.6979 48.7604 44 47.9219L46.6094 40.5781ZM50.7188 52H49.4219V43.4375H50.7188V52ZM49.3125 41.1172C49.3125 40.8203 49.3854 40.6042 49.5312 40.4688C49.6771 40.3281 49.8594 40.2578 50.0781 40.2578C50.2865 40.2578 50.4661 40.3281 50.6172 40.4688C50.7682 40.6094 50.8438 40.8255 50.8438 41.1172C50.8438 41.4089 50.7682 41.6276 50.6172 41.7734C50.4661 41.9141 50.2865 41.9844 50.0781 41.9844C49.8594 41.9844 49.6771 41.9141 49.5312 41.7734C49.3854 41.6276 49.3125 41.4089 49.3125 41.1172ZM59.2969 50.8516H59.2266C58.6276 51.7214 57.7318 52.1562 56.5391 52.1562C55.4193 52.1562 54.5469 51.7734 53.9219 51.0078C53.3021 50.2422 52.9922 49.1536 52.9922 47.7422C52.9922 46.3307 53.3047 45.2344 53.9297 44.4531C54.5547 43.6719 55.4245 43.2812 56.5391 43.2812C57.7005 43.2812 58.5911 43.7031 59.2109 44.5469H59.3125L59.2578 43.9297L59.2266 43.3281V39.8438H60.5234V52H59.4688L59.2969 50.8516ZM56.7031 51.0703C57.5885 51.0703 58.2292 50.8307 58.625 50.3516C59.026 49.8672 59.2266 49.0885 59.2266 48.0156V47.7422C59.2266 46.5286 59.0234 45.6641 58.6172 45.1484C58.2161 44.6276 57.5729 44.3672 56.6875 44.3672C55.9271 44.3672 55.3438 44.6641 54.9375 45.2578C54.5365 45.8464 54.3359 46.6797 54.3359 47.7578C54.3359 48.8516 54.5365 49.6771 54.9375 50.2344C55.3385 50.7917 55.9271 51.0703 56.7031 51.0703ZM66.8984 52.1562C65.6328 52.1562 64.6328 51.7708 63.8984 51C63.1693 50.2292 62.8047 49.1589 62.8047 47.7891C62.8047 46.4089 63.1432 45.3125 63.8203 44.5C64.5026 43.6875 65.4167 43.2812 66.5625 43.2812C67.6354 43.2812 68.4844 43.6354 69.1094 44.3438C69.7344 45.0469 70.0469 45.9766 70.0469 47.1328V47.9531H64.1484C64.1745 48.9583 64.4271 49.7214 64.9062 50.2422C65.3906 50.763 66.0703 51.0234 66.9453 51.0234C67.8672 51.0234 68.7786 50.8307 69.6797 50.4453V51.6016C69.2214 51.7995 68.7865 51.9401 68.375 52.0234C67.9688 52.112 67.4766 52.1562 66.8984 52.1562ZM66.5469 44.3672C65.8594 44.3672 65.3099 44.5911 64.8984 45.0391C64.4922 45.487 64.2526 46.1068 64.1797 46.8984H68.6562C68.6562 46.0807 68.474 45.4557 68.1094 45.0234C67.7448 44.5859 67.224 44.3672 66.5469 44.3672ZM79.6562 47.7109C79.6562 49.1068 79.3047 50.1979 78.6016 50.9844C77.8984 51.7656 76.9271 52.1562 75.6875 52.1562C74.9219 52.1562 74.2422 51.9766 73.6484 51.6172C73.0547 51.2578 72.5964 50.7422 72.2734 50.0703C71.9505 49.3984 71.7891 48.612 71.7891 47.7109C71.7891 46.3151 72.138 45.2292 72.8359 44.4531C73.5339 43.6719 74.5026 43.2812 75.7422 43.2812C76.9401 43.2812 77.8906 43.6797 78.5938 44.4766C79.3021 45.2734 79.6562 46.3516 79.6562 47.7109ZM73.1328 47.7109C73.1328 48.8047 73.3516 49.638 73.7891 50.2109C74.2266 50.7839 74.8698 51.0703 75.7188 51.0703C76.5677 51.0703 77.2109 50.7865 77.6484 50.2188C78.0911 49.6458 78.3125 48.8099 78.3125 47.7109C78.3125 46.6224 78.0911 45.7969 77.6484 45.2344C77.2109 44.6667 76.5625 44.3828 75.7031 44.3828C74.8542 44.3828 74.2135 44.6615 73.7812 45.2188C73.349 45.776 73.1328 46.6068 73.1328 47.7109Z" fill="white"/>
</svg>
