<svg width="30" height="30" viewBox="0 0 30 30" fill="none" xmlns="http://www.w3.org/2000/svg">
<path d="M13.746 2.7508L5.84719 7.5588H0.878889C0.393508 7.5588 0 7.9523 0 8.43769V21.5624C0 22.0478 0.393508 22.4413 0.878889 22.4413H5.84719L13.7459 27.2493C15.5035 28.3192 17.7536 27.0553 17.7536 24.9971V5.00304C17.7536 2.9455 15.504 1.68066 13.746 2.7508ZM1.75778 9.31657H5.21474V20.6835H1.75778V9.31657ZM15.9958 24.9971C15.9958 25.6825 15.2466 26.1049 14.6599 25.7478L6.97252 21.0685V8.93162L14.6599 4.25235C15.2455 3.89588 15.9958 4.31628 15.9958 5.0031V24.9971Z" fill="white"/>
<path d="M20.2542 12.7213C19.911 13.0645 19.911 13.621 20.2542 13.9642C20.8266 14.5367 20.8267 15.4632 20.2542 16.0357C19.911 16.379 19.911 16.9354 20.2542 17.2786C20.5974 17.6219 21.1539 17.6219 21.4971 17.2786C22.7536 16.0222 22.7536 13.9777 21.4971 12.7213C21.1539 12.378 20.5974 12.378 20.2542 12.7213Z" fill="white"/>
<path d="M24.1487 10.0697C23.8055 9.72648 23.249 9.72648 22.9058 10.0697C22.5625 10.4129 22.5625 10.9694 22.9058 11.3126C24.939 13.3459 24.939 16.6542 22.9058 18.6874C22.5625 19.0306 22.5625 19.5871 22.9058 19.9303C23.2489 20.2736 23.8055 20.2736 24.1487 19.9303C26.8673 17.2118 26.8673 12.7883 24.1487 10.0697Z" fill="white"/>
<path d="M26.8002 7.41813C26.4571 7.0749 25.9006 7.0749 25.5573 7.41813C25.2141 7.76137 25.2141 8.31782 25.5573 8.66106C29.1119 12.2156 29.1119 17.7845 25.5573 21.339C25.2141 21.6823 25.2141 22.2387 25.5573 22.582C25.9005 22.9252 26.457 22.9253 26.8002 22.582C31.0643 18.3179 31.0688 11.6867 26.8002 7.41813Z" fill="white"/>
</svg>
